<?xml version="1.0" encoding="utf-8" standalone="no"?>
<!DOCTYPE svg PUBLIC "-//W3C//DTD SVG 1.1//EN"
  "http://www.w3.org/Graphics/SVG/1.1/DTD/svg11.dtd">
<svg xmlns:xlink="http://www.w3.org/1999/xlink" width="720pt" height="576pt" viewBox="0 0 720 576" xmlns="http://www.w3.org/2000/svg" version="1.1">
 <metadata>
  <rdf:RDF xmlns:dc="http://purl.org/dc/elements/1.1/" xmlns:cc="http://creativecommons.org/ns#" xmlns:rdf="http://www.w3.org/1999/02/22-rdf-syntax-ns#">
   <cc:Work>
    <dc:type rdf:resource="http://purl.org/dc/dcmitype/StillImage"/>
    <dc:date>2022-08-17T15:37:49.325392</dc:date>
    <dc:format>image/svg+xml</dc:format>
    <dc:creator>
     <cc:Agent>
      <dc:title>Matplotlib v3.5.3, https://matplotlib.org/</dc:title>
     </cc:Agent>
    </dc:creator>
   </cc:Work>
  </rdf:RDF>
 </metadata>
 <defs>
  <style type="text/css">*{stroke-linejoin: round; stroke-linecap: butt}</style>
 </defs>
 <g id="figure_1">
  <g id="patch_1">
   <path d="M 0 576 
L 720 576 
L 720 0 
L 0 0 
z
" style="fill: #ffffff"/>
  </g>
  <g id="axes_1">
   <g id="patch_2">
    <path d="M 125.48 259.702 
L 698.4 259.702 
L 698.4 42 
L 125.48 42 
z
" style="fill: #ffffff"/>
   </g>
   <g id="matplotlib.axis_1">
    <g id="xtick_1">
     <g id="line2d_1">
      <defs>
       <path id="m9fd7451e8e" d="M 0 0 
L 0 3.5 
" style="stroke: #000000; stroke-width: 0.8"/>
      </defs>
      <g>
       <use xlink:href="#m9fd7451e8e" x="215.995027" y="259.702" style="stroke: #000000; stroke-width: 0.8"/>
      </g>
     </g>
    </g>
    <g id="xtick_2">
     <g id="line2d_2">
      <g>
       <use xlink:href="#m9fd7451e8e" x="313.967513" y="259.702" style="stroke: #000000; stroke-width: 0.8"/>
      </g>
     </g>
    </g>
    <g id="xtick_3">
     <g id="line2d_3">
      <g>
       <use xlink:href="#m9fd7451e8e" x="411.94" y="259.702" style="stroke: #000000; stroke-width: 0.8"/>
      </g>
     </g>
    </g>
    <g id="xtick_4">
     <g id="line2d_4">
      <g>
       <use xlink:href="#m9fd7451e8e" x="509.912487" y="259.702" style="stroke: #000000; stroke-width: 0.8"/>
      </g>
     </g>
    </g>
    <g id="xtick_5">
     <g id="line2d_5">
      <g>
       <use xlink:href="#m9fd7451e8e" x="607.884973" y="259.702" style="stroke: #000000; stroke-width: 0.8"/>
      </g>
     </g>
    </g>
   </g>
   <g id="matplotlib.axis_2">
    <g id="ytick_1">
     <g id="line2d_6">
      <defs>
       <path id="m1c37168080" d="M 0 0 
L -3.5 0 
" style="stroke: #000000; stroke-width: 0.8"/>
      </defs>
      <g>
       <use xlink:href="#m1c37168080" x="125.48" y="249.806455" style="stroke: #000000; stroke-width: 0.8"/>
      </g>
     </g>
     <g id="text_1">
      <!-- 0.00 -->
      <g transform="translate(73.94875 257.404892)scale(0.2 -0.2)">
       <defs>
        <path id="DejaVuSans-30" d="M 2034 4250 
Q 1547 4250 1301 3770 
Q 1056 3291 1056 2328 
Q 1056 1369 1301 889 
Q 1547 409 2034 409 
Q 2525 409 2770 889 
Q 3016 1369 3016 2328 
Q 3016 3291 2770 3770 
Q 2525 4250 2034 4250 
z
M 2034 4750 
Q 2819 4750 3233 4129 
Q 3647 3509 3647 2328 
Q 3647 1150 3233 529 
Q 2819 -91 2034 -91 
Q 1250 -91 836 529 
Q 422 1150 422 2328 
Q 422 3509 836 4129 
Q 1250 4750 2034 4750 
z
" transform="scale(0.015625)"/>
        <path id="DejaVuSans-2e" d="M 684 794 
L 1344 794 
L 1344 0 
L 684 0 
L 684 794 
z
" transform="scale(0.015625)"/>
       </defs>
       <use xlink:href="#DejaVuSans-30"/>
       <use xlink:href="#DejaVuSans-2e" x="63.623047"/>
       <use xlink:href="#DejaVuSans-30" x="95.410156"/>
       <use xlink:href="#DejaVuSans-30" x="159.033203"/>
      </g>
     </g>
    </g>
    <g id="ytick_2">
     <g id="line2d_7">
      <g>
       <use xlink:href="#m1c37168080" x="125.48" y="200.328727" style="stroke: #000000; stroke-width: 0.8"/>
      </g>
     </g>
     <g id="text_2">
      <!-- 0.25 -->
      <g transform="translate(73.94875 207.927165)scale(0.2 -0.2)">
       <defs>
        <path id="DejaVuSans-32" d="M 1228 531 
L 3431 531 
L 3431 0 
L 469 0 
L 469 531 
Q 828 903 1448 1529 
Q 2069 2156 2228 2338 
Q 2531 2678 2651 2914 
Q 2772 3150 2772 3378 
Q 2772 3750 2511 3984 
Q 2250 4219 1831 4219 
Q 1534 4219 1204 4116 
Q 875 4013 500 3803 
L 500 4441 
Q 881 4594 1212 4672 
Q 1544 4750 1819 4750 
Q 2544 4750 2975 4387 
Q 3406 4025 3406 3419 
Q 3406 3131 3298 2873 
Q 3191 2616 2906 2266 
Q 2828 2175 2409 1742 
Q 1991 1309 1228 531 
z
" transform="scale(0.015625)"/>
        <path id="DejaVuSans-35" d="M 691 4666 
L 3169 4666 
L 3169 4134 
L 1269 4134 
L 1269 2991 
Q 1406 3038 1543 3061 
Q 1681 3084 1819 3084 
Q 2600 3084 3056 2656 
Q 3513 2228 3513 1497 
Q 3513 744 3044 326 
Q 2575 -91 1722 -91 
Q 1428 -91 1123 -41 
Q 819 9 494 109 
L 494 744 
Q 775 591 1075 516 
Q 1375 441 1709 441 
Q 2250 441 2565 725 
Q 2881 1009 2881 1497 
Q 2881 1984 2565 2268 
Q 2250 2553 1709 2553 
Q 1456 2553 1204 2497 
Q 953 2441 691 2322 
L 691 4666 
z
" transform="scale(0.015625)"/>
       </defs>
       <use xlink:href="#DejaVuSans-30"/>
       <use xlink:href="#DejaVuSans-2e" x="63.623047"/>
       <use xlink:href="#DejaVuSans-32" x="95.410156"/>
       <use xlink:href="#DejaVuSans-35" x="159.033203"/>
      </g>
     </g>
    </g>
    <g id="ytick_3">
     <g id="line2d_8">
      <g>
       <use xlink:href="#m1c37168080" x="125.48" y="150.851" style="stroke: #000000; stroke-width: 0.8"/>
      </g>
     </g>
     <g id="text_3">
      <!-- 0.50 -->
      <g transform="translate(73.94875 158.449437)scale(0.2 -0.2)">
       <use xlink:href="#DejaVuSans-30"/>
       <use xlink:href="#DejaVuSans-2e" x="63.623047"/>
       <use xlink:href="#DejaVuSans-35" x="95.410156"/>
       <use xlink:href="#DejaVuSans-30" x="159.033203"/>
      </g>
     </g>
    </g>
    <g id="ytick_4">
     <g id="line2d_9">
      <g>
       <use xlink:href="#m1c37168080" x="125.48" y="101.373273" style="stroke: #000000; stroke-width: 0.8"/>
      </g>
     </g>
     <g id="text_4">
      <!-- 0.75 -->
      <g transform="translate(73.94875 108.97171)scale(0.2 -0.2)">
       <defs>
        <path id="DejaVuSans-37" d="M 525 4666 
L 3525 4666 
L 3525 4397 
L 1831 0 
L 1172 0 
L 2766 4134 
L 525 4134 
L 525 4666 
z
" transform="scale(0.015625)"/>
       </defs>
       <use xlink:href="#DejaVuSans-30"/>
       <use xlink:href="#DejaVuSans-2e" x="63.623047"/>
       <use xlink:href="#DejaVuSans-37" x="95.410156"/>
       <use xlink:href="#DejaVuSans-35" x="159.033203"/>
      </g>
     </g>
    </g>
    <g id="ytick_5">
     <g id="line2d_10">
      <g>
       <use xlink:href="#m1c37168080" x="125.48" y="51.895545" style="stroke: #000000; stroke-width: 0.8"/>
      </g>
     </g>
     <g id="text_5">
      <!-- 1.00 -->
      <g transform="translate(73.94875 59.493983)scale(0.2 -0.2)">
       <defs>
        <path id="DejaVuSans-31" d="M 794 531 
L 1825 531 
L 1825 4091 
L 703 3866 
L 703 4441 
L 1819 4666 
L 2450 4666 
L 2450 531 
L 3481 531 
L 3481 0 
L 794 0 
L 794 531 
z
" transform="scale(0.015625)"/>
       </defs>
       <use xlink:href="#DejaVuSans-31"/>
       <use xlink:href="#DejaVuSans-2e" x="63.623047"/>
       <use xlink:href="#DejaVuSans-30" x="95.410156"/>
       <use xlink:href="#DejaVuSans-30" x="159.033203"/>
      </g>
     </g>
    </g>
   </g>
   <g id="line2d_11">
    <path d="M 151.521818 51.895545 
L 178.96168 52.005547 
L 191.465921 52.263937 
L 199.802081 52.647683 
L 206.054202 53.147686 
L 211.090632 53.763181 
L 215.432382 54.516215 
L 219.079453 55.366443 
L 222.379183 56.359688 
L 225.331573 57.475912 
L 228.110293 58.76824 
L 230.715343 60.236857 
L 233.146723 61.874195 
L 235.404434 63.664034 
L 237.662144 65.753446 
L 239.746184 67.985261 
L 241.830224 70.545679 
L 243.914264 73.473448 
L 245.998304 76.808635 
L 248.082344 80.591458 
L 250.166385 84.860674 
L 252.250425 89.651471 
L 254.334465 94.992826 
L 256.592175 101.423069 
L 258.849885 108.530039 
L 261.281265 116.92223 
L 264.059985 127.377958 
L 267.186046 140.053722 
L 271.875136 160.135973 
L 277.258906 182.960686 
L 280.211296 194.511651 
L 282.642677 203.191773 
L 284.900387 210.456601 
L 286.984427 216.43293 
L 288.894797 221.286253 
L 290.805167 225.555074 
L 292.715537 229.268763 
L 294.625907 232.468364 
L 296.536278 235.202229 
L 298.446648 237.522089 
L 300.357018 239.479834 
L 302.267388 241.125121 
L 304.351428 242.617362 
L 306.435468 243.845317 
L 308.693178 244.930513 
L 311.298229 245.928016 
L 314.250619 246.801611 
L 317.550349 247.535179 
L 321.371089 248.152784 
L 326.060179 248.676239 
L 331.96496 249.098273 
L 339.78011 249.418647 
L 351.068661 249.639142 
L 370.346032 249.762201 
L 423.662726 249.801415 
L 672.358182 249.806364 
L 672.358182 249.806364 
" clip-path="url(#p5a6a6f1c0b)" style="fill: none; stroke: #1f77b4; stroke-width: 1.5; stroke-linecap: square"/>
   </g>
   <g id="line2d_12">
    <path d="M 151.521818 249.806455 
L 183.30343 249.695127 
L 197.544371 249.442925 
L 206.575212 249.072193 
L 213.174672 248.592455 
L 218.558443 247.986241 
L 223.073863 247.258914 
L 226.894603 246.430319 
L 230.368003 245.457141 
L 233.494063 244.358247 
L 236.446454 243.085752 
L 239.225174 241.642801 
L 241.830224 240.041522 
L 244.435274 238.169735 
L 246.866654 236.154906 
L 249.298034 233.863579 
L 251.903085 231.09071 
L 254.508135 227.991698 
L 257.460525 224.116427 
L 260.933925 219.171371 
L 268.922746 207.640955 
L 271.180456 204.847384 
L 273.090826 202.825246 
L 274.653856 201.460486 
L 276.216886 200.395977 
L 277.606246 199.726119 
L 278.821936 199.366322 
L 280.037626 199.224804 
L 281.253317 199.304372 
L 282.469007 199.603924 
L 283.684697 200.118481 
L 285.074057 200.958518 
L 286.637087 202.202493 
L 288.373787 203.916179 
L 290.284157 206.140911 
L 292.541867 209.122121 
L 295.841598 213.89697 
L 302.962068 224.304826 
L 305.914458 228.188295 
L 308.693178 231.47994 
L 311.298229 234.221255 
L 313.903279 236.629469 
L 316.508329 238.719818 
L 319.113379 240.5165 
L 321.718429 242.04837 
L 324.497149 243.424761 
L 327.44954 244.635465 
L 330.5756 245.678724 
L 334.049 246.600928 
L 337.86974 247.384909 
L 342.21149 248.049709 
L 347.421591 248.613908 
L 353.673711 249.058861 
L 361.662532 249.395602 
L 372.951082 249.630297 
L 391.360104 249.761828 
L 438.251007 249.804434 
L 672.358182 249.806437 
L 672.358182 249.806437 
" clip-path="url(#p5a6a6f1c0b)" style="fill: none; stroke-dasharray: 5.55,2.4; stroke-dashoffset: 0; stroke: #ff7f0e; stroke-width: 1.5"/>
   </g>
   <g id="line2d_13">
    <path d="M 151.521818 249.806455 
L 210.395952 249.696437 
L 225.678913 249.457917 
L 235.404434 249.096414 
L 242.872244 248.602956 
L 249.124364 247.972201 
L 254.855475 247.17328 
L 260.760255 246.118924 
L 277.953586 242.849654 
L 281.426987 242.551709 
L 284.726717 242.490654 
L 288.026447 242.653693 
L 291.499847 243.045631 
L 295.667927 243.744934 
L 302.614728 245.179113 
L 310.429878 246.723662 
L 316.160989 247.626353 
L 322.065769 248.324656 
L 328.49156 248.854903 
L 336.13304 249.255431 
L 346.032231 249.539809 
L 360.620512 249.716548 
L 388.928724 249.795672 
L 541.410993 249.806425 
L 672.358182 249.806442 
L 672.358182 249.806442 
" clip-path="url(#p5a6a6f1c0b)" style="fill: none; stroke-dasharray: 5.55,2.4; stroke-dashoffset: 0; stroke: #2ca02c; stroke-width: 1.5"/>
   </g>
   <g id="line2d_14">
    <path d="M 151.521818 249.806455 
L 190.597571 249.69565 
L 203.275482 249.438636 
L 211.611642 249.059993 
L 217.863762 248.566974 
L 222.900193 247.96075 
L 227.241943 247.220155 
L 231.062683 246.339867 
L 234.362414 245.354419 
L 237.314804 244.24974 
L 240.093524 242.974432 
L 242.698574 241.52987 
L 245.129954 239.925186 
L 247.387664 238.177989 
L 249.645375 236.147385 
L 251.903085 233.795748 
L 253.987125 231.305812 
L 256.071165 228.476612 
L 258.155205 225.276432 
L 260.239245 221.675081 
L 262.323285 217.645485 
L 264.580995 212.771408 
L 266.838706 207.350516 
L 269.270086 200.895423 
L 271.875136 193.286418 
L 274.653856 184.438058 
L 277.779916 173.715608 
L 281.947997 158.540763 
L 290.978837 125.402564 
L 294.278567 114.308092 
L 297.057288 105.712808 
L 299.662338 98.364934 
L 302.093718 92.162418 
L 304.351428 86.975299 
L 306.609138 82.328 
L 308.866848 78.197455 
L 311.124558 74.552166 
L 313.382269 71.355209 
L 315.639979 68.5668 
L 317.897689 66.146349 
L 320.155399 64.054019 
L 322.413109 62.251816 
L 324.844489 60.594867 
L 327.44954 59.101592 
L 330.22826 57.781702 
L 333.18065 56.636905 
L 336.30671 55.662072 
L 339.78011 54.808991 
L 343.774521 54.061822 
L 348.463611 53.424121 
L 354.021051 52.906321 
L 360.794182 52.506527 
L 369.825022 52.209091 
L 383.023943 52.016141 
L 407.337745 51.919924 
L 443.634777 51.978364 
L 457.354708 52.205999 
L 466.211879 52.562647 
L 472.811339 53.041323 
L 478.021439 53.630176 
L 482.36319 54.330396 
L 486.18393 55.163244 
L 489.65733 56.151767 
L 492.78339 57.281065 
L 495.56211 58.520321 
L 498.167161 59.924675 
L 500.598541 61.485463 
L 502.856251 63.185775 
L 505.113961 65.163063 
L 507.371671 67.454517 
L 509.455711 69.882546 
L 511.539751 72.643648 
L 513.623792 75.769662 
L 515.707832 79.291159 
L 517.791872 83.235913 
L 520.049582 88.013703 
L 522.307292 93.335626 
L 524.738672 99.68401 
L 527.170052 106.661165 
L 529.948773 115.357114 
L 533.074833 125.939191 
L 536.895573 139.71657 
L 547.663114 179.073731 
L 550.789174 189.397884 
L 553.567894 197.819691 
L 556.172944 204.992452 
L 558.604324 211.027941 
L 560.862035 216.061855 
L 563.119745 220.561399 
L 565.377455 224.552252 
L 567.635165 228.067681 
L 569.892875 231.145638 
L 572.150585 233.826324 
L 574.408295 236.15027 
L 576.666006 238.156912 
L 579.097386 240.005842 
L 581.528766 241.57318 
L 584.133816 242.984242 
L 586.912536 244.230292 
L 589.864926 245.310123 
L 593.164657 246.274123 
L 596.811727 247.102101 
L 600.979807 247.813076 
L 605.842568 248.407961 
L 611.747348 248.893202 
L 619.215158 249.267353 
L 629.288019 249.531643 
L 644.91832 249.693173 
L 672.358182 249.756165 
L 672.358182 249.756165 
" clip-path="url(#p5a6a6f1c0b)" style="fill: none; stroke-dasharray: 9.6,2.4,1.5,2.4; stroke-dashoffset: 0; stroke: #d62728; stroke-width: 1.5"/>
   </g>
   <g id="line2d_15">
    <path d="M 151.521818 249.806455 
L 465.517198 249.696253 
L 481.321169 249.464776 
L 491.22036 249.109236 
L 498.688171 248.627284 
L 504.940291 248.008943 
L 510.671401 247.223579 
L 516.576182 246.18479 
L 526.649042 244.118336 
L 531.685473 243.229921 
L 535.506213 242.777503 
L 538.979613 242.596825 
L 542.279343 242.651847 
L 545.752744 242.940742 
L 549.573484 243.487201 
L 554.783584 244.479616 
L 567.114155 246.911692 
L 572.845265 247.767608 
L 578.750046 248.423658 
L 585.349506 248.929773 
L 593.338327 249.311178 
L 603.932197 249.578569 
L 620.083508 249.738237 
L 654.122831 249.80139 
L 672.358182 249.805246 
L 672.358182 249.805246 
" clip-path="url(#p5a6a6f1c0b)" style="fill: none; stroke-dasharray: 5.55,2.4; stroke-dashoffset: 0; stroke: #9467bd; stroke-width: 1.5"/>
   </g>
   <g id="line2d_16">
    <path d="M 151.521818 249.806455 
L 450.060567 249.695732 
L 462.564808 249.434281 
L 471.074639 249.043235 
L 477.500429 248.533296 
L 482.71053 247.903286 
L 487.05228 247.164189 
L 490.87302 246.296013 
L 494.34642 245.278449 
L 497.472481 244.131205 
L 500.424871 242.804227 
L 503.203591 241.300736 
L 505.808641 239.633268 
L 508.240021 237.82422 
L 510.671401 235.747839 
L 513.102782 233.38598 
L 515.707832 230.527274 
L 518.312882 227.332527 
L 521.265272 223.339935 
L 524.912342 217.993082 
L 532.032813 207.44323 
L 534.290523 204.527683 
L 536.200893 202.397839 
L 537.937593 200.8008 
L 539.500623 199.684427 
L 540.889983 198.973373 
L 542.105673 198.581523 
L 543.321363 198.411708 
L 544.537054 198.466652 
L 545.752744 198.7451 
L 546.968434 199.241881 
L 548.357794 200.06543 
L 549.747154 201.14384 
L 551.310184 202.632331 
L 553.220554 204.791887 
L 555.478264 207.724211 
L 558.430654 211.965512 
L 567.461495 225.205083 
L 570.413885 229.006818 
L 573.018935 232.020174 
L 575.623986 234.697887 
L 578.229036 237.044607 
L 580.834086 239.077845 
L 583.439136 240.822905 
L 586.044186 242.308996 
L 588.822906 243.642872 
L 591.775297 244.815049 
L 595.075027 245.874106 
L 598.548427 246.754527 
L 602.542837 247.53151 
L 607.058258 248.177999 
L 612.442028 248.715564 
L 619.041488 249.13999 
L 627.551319 249.453566 
L 639.88189 249.665145 
L 661.243301 249.775153 
L 672.358182 249.790593 
L 672.358182 249.790593 
" clip-path="url(#p5a6a6f1c0b)" style="fill: none; stroke-dasharray: 5.55,2.4; stroke-dashoffset: 0; stroke: #8c564b; stroke-width: 1.5"/>
   </g>
   <g id="line2d_17">
    <path d="M 151.521818 249.806455 
L 475.937399 249.695857 
L 487.92063 249.447858 
L 495.56211 249.077622 
L 501.119551 248.594961 
L 505.461301 248.004577 
L 509.108371 247.286462 
L 512.234431 246.43936 
L 514.839482 245.511694 
L 517.270862 244.408804 
L 519.528572 243.126001 
L 521.612612 241.669223 
L 523.522982 240.057123 
L 525.433352 238.132727 
L 527.170052 236.070036 
L 528.906753 233.668214 
L 530.643453 230.887578 
L 532.380153 227.690237 
L 534.116853 224.042482 
L 536.027223 219.477966 
L 537.937593 214.31417 
L 540.021633 207.993702 
L 542.279343 200.366609 
L 544.710724 191.331662 
L 547.663114 179.433355 
L 551.831194 161.590722 
L 557.909644 135.620313 
L 561.035705 123.231645 
L 563.814425 113.116271 
L 566.245805 105.06164 
L 568.503515 98.283654 
L 570.761225 92.184098 
L 573.018935 86.74507 
L 575.102976 82.28243 
L 577.187016 78.321082 
L 579.271056 74.822984 
L 581.355096 71.747962 
L 583.439136 69.055498 
L 585.523176 66.706058 
L 587.780886 64.504325 
L 590.038597 62.616491 
L 592.469977 60.887951 
L 594.901357 59.43089 
L 597.506407 58.125578 
L 600.285127 56.978022 
L 603.411187 55.935539 
L 606.884588 55.025207 
L 610.705328 54.259366 
L 615.047078 53.61563 
L 620.257178 53.073349 
L 626.682969 52.639091 
L 635.019129 52.313211 
L 646.82869 52.093379 
L 666.800741 51.974535 
L 672.358182 51.963025 
L 672.358182 51.963025 
" clip-path="url(#p5a6a6f1c0b)" style="fill: none; stroke: #e377c2; stroke-width: 1.5; stroke-linecap: square"/>
   </g>
   <g id="patch_3">
    <path d="M 125.48 259.702 
L 125.48 42 
" style="fill: none; stroke: #000000; stroke-width: 0.8; stroke-linejoin: miter; stroke-linecap: square"/>
   </g>
   <g id="patch_4">
    <path d="M 698.4 259.702 
L 698.4 42 
" style="fill: none; stroke: #000000; stroke-width: 0.8; stroke-linejoin: miter; stroke-linecap: square"/>
   </g>
   <g id="patch_5">
    <path d="M 125.48 259.702 
L 698.4 259.702 
" style="fill: none; stroke: #000000; stroke-width: 0.8; stroke-linejoin: miter; stroke-linecap: square"/>
   </g>
   <g id="patch_6">
    <path d="M 125.48 42 
L 698.4 42 
" style="fill: none; stroke: #000000; stroke-width: 0.8; stroke-linejoin: miter; stroke-linecap: square"/>
   </g>
   <g id="text_6">
    <!-- $l=30\,m,\,\omega=2\pi\times8.40701933547913\,\mathrm{GHz},\,\kappa_filter=2\pi\times130.0\,\mathrm{MHz},\,\kappa_{eff}=19.231$ -->
    <g transform="translate(88.26 36)scale(0.16 -0.16)">
     <defs>
      <path id="DejaVuSans-Oblique-6c" d="M 1172 4863 
L 1747 4863 
L 800 0 
L 225 0 
L 1172 4863 
z
" transform="scale(0.015625)"/>
      <path id="DejaVuSans-3d" d="M 678 2906 
L 4684 2906 
L 4684 2381 
L 678 2381 
L 678 2906 
z
M 678 1631 
L 4684 1631 
L 4684 1100 
L 678 1100 
L 678 1631 
z
" transform="scale(0.015625)"/>
      <path id="DejaVuSans-33" d="M 2597 2516 
Q 3050 2419 3304 2112 
Q 3559 1806 3559 1356 
Q 3559 666 3084 287 
Q 2609 -91 1734 -91 
Q 1441 -91 1130 -33 
Q 819 25 488 141 
L 488 750 
Q 750 597 1062 519 
Q 1375 441 1716 441 
Q 2309 441 2620 675 
Q 2931 909 2931 1356 
Q 2931 1769 2642 2001 
Q 2353 2234 1838 2234 
L 1294 2234 
L 1294 2753 
L 1863 2753 
Q 2328 2753 2575 2939 
Q 2822 3125 2822 3475 
Q 2822 3834 2567 4026 
Q 2313 4219 1838 4219 
Q 1578 4219 1281 4162 
Q 984 4106 628 3988 
L 628 4550 
Q 988 4650 1302 4700 
Q 1616 4750 1894 4750 
Q 2613 4750 3031 4423 
Q 3450 4097 3450 3541 
Q 3450 3153 3228 2886 
Q 3006 2619 2597 2516 
z
" transform="scale(0.015625)"/>
      <path id="DejaVuSans-Oblique-6d" d="M 5747 2113 
L 5338 0 
L 4763 0 
L 5166 2094 
Q 5191 2228 5203 2325 
Q 5216 2422 5216 2491 
Q 5216 2772 5059 2928 
Q 4903 3084 4622 3084 
Q 4203 3084 3875 2770 
Q 3547 2456 3450 1953 
L 3066 0 
L 2491 0 
L 2900 2094 
Q 2925 2209 2937 2307 
Q 2950 2406 2950 2484 
Q 2950 2769 2794 2926 
Q 2638 3084 2363 3084 
Q 1938 3084 1609 2770 
Q 1281 2456 1184 1953 
L 800 0 
L 225 0 
L 909 3500 
L 1484 3500 
L 1375 2956 
Q 1609 3263 1923 3423 
Q 2238 3584 2597 3584 
Q 2978 3584 3223 3384 
Q 3469 3184 3519 2828 
Q 3781 3197 4126 3390 
Q 4472 3584 4856 3584 
Q 5306 3584 5551 3325 
Q 5797 3066 5797 2591 
Q 5797 2488 5784 2364 
Q 5772 2241 5747 2113 
z
" transform="scale(0.015625)"/>
      <path id="DejaVuSans-2c" d="M 750 794 
L 1409 794 
L 1409 256 
L 897 -744 
L 494 -744 
L 750 256 
L 750 794 
z
" transform="scale(0.015625)"/>
      <path id="DejaVuSans-Oblique-3c9" d="M 1369 -91 
Q 72 -91 434 1766 
Q 575 2500 1256 3500 
L 1875 3500 
Q 1231 2500 1088 1750 
Q 819 397 1519 397 
Q 2166 397 2478 2078 
L 3009 2078 
Q 2669 388 3316 397 
Q 4013 403 4275 1750 
Q 4419 2500 4169 3500 
L 4788 3500 
Q 5075 2500 4934 1766 
Q 4578 -94 3278 -91 
Q 2428 -88 2503 844 
Q 2194 -91 1369 -91 
z
" transform="scale(0.015625)"/>
      <path id="DejaVuSans-Oblique-3c0" d="M 584 3500 
L 3938 3500 
L 3825 2925 
L 3384 2925 
L 2966 775 
Q 2922 550 2981 450 
Q 3038 353 3209 353 
Q 3256 353 3325 363 
Q 3397 369 3419 372 
L 3338 -44 
Q 3222 -84 3103 -103 
Q 2981 -122 2866 -122 
Q 2491 -122 2388 81 
Q 2284 288 2391 838 
L 2797 2925 
L 1506 2925 
L 938 0 
L 350 0 
L 919 2925 
L 472 2925 
L 584 3500 
z
" transform="scale(0.015625)"/>
      <path id="DejaVuSans-d7" d="M 4488 3438 
L 3059 2003 
L 4488 575 
L 4116 197 
L 2681 1631 
L 1247 197 
L 878 575 
L 2303 2003 
L 878 3438 
L 1247 3816 
L 2681 2381 
L 4116 3816 
L 4488 3438 
z
" transform="scale(0.015625)"/>
      <path id="DejaVuSans-38" d="M 2034 2216 
Q 1584 2216 1326 1975 
Q 1069 1734 1069 1313 
Q 1069 891 1326 650 
Q 1584 409 2034 409 
Q 2484 409 2743 651 
Q 3003 894 3003 1313 
Q 3003 1734 2745 1975 
Q 2488 2216 2034 2216 
z
M 1403 2484 
Q 997 2584 770 2862 
Q 544 3141 544 3541 
Q 544 4100 942 4425 
Q 1341 4750 2034 4750 
Q 2731 4750 3128 4425 
Q 3525 4100 3525 3541 
Q 3525 3141 3298 2862 
Q 3072 2584 2669 2484 
Q 3125 2378 3379 2068 
Q 3634 1759 3634 1313 
Q 3634 634 3220 271 
Q 2806 -91 2034 -91 
Q 1263 -91 848 271 
Q 434 634 434 1313 
Q 434 1759 690 2068 
Q 947 2378 1403 2484 
z
M 1172 3481 
Q 1172 3119 1398 2916 
Q 1625 2713 2034 2713 
Q 2441 2713 2670 2916 
Q 2900 3119 2900 3481 
Q 2900 3844 2670 4047 
Q 2441 4250 2034 4250 
Q 1625 4250 1398 4047 
Q 1172 3844 1172 3481 
z
" transform="scale(0.015625)"/>
      <path id="DejaVuSans-34" d="M 2419 4116 
L 825 1625 
L 2419 1625 
L 2419 4116 
z
M 2253 4666 
L 3047 4666 
L 3047 1625 
L 3713 1625 
L 3713 1100 
L 3047 1100 
L 3047 0 
L 2419 0 
L 2419 1100 
L 313 1100 
L 313 1709 
L 2253 4666 
z
" transform="scale(0.015625)"/>
      <path id="DejaVuSans-39" d="M 703 97 
L 703 672 
Q 941 559 1184 500 
Q 1428 441 1663 441 
Q 2288 441 2617 861 
Q 2947 1281 2994 2138 
Q 2813 1869 2534 1725 
Q 2256 1581 1919 1581 
Q 1219 1581 811 2004 
Q 403 2428 403 3163 
Q 403 3881 828 4315 
Q 1253 4750 1959 4750 
Q 2769 4750 3195 4129 
Q 3622 3509 3622 2328 
Q 3622 1225 3098 567 
Q 2575 -91 1691 -91 
Q 1453 -91 1209 -44 
Q 966 3 703 97 
z
M 1959 2075 
Q 2384 2075 2632 2365 
Q 2881 2656 2881 3163 
Q 2881 3666 2632 3958 
Q 2384 4250 1959 4250 
Q 1534 4250 1286 3958 
Q 1038 3666 1038 3163 
Q 1038 2656 1286 2365 
Q 1534 2075 1959 2075 
z
" transform="scale(0.015625)"/>
      <path id="DejaVuSans-47" d="M 3809 666 
L 3809 1919 
L 2778 1919 
L 2778 2438 
L 4434 2438 
L 4434 434 
Q 4069 175 3628 42 
Q 3188 -91 2688 -91 
Q 1594 -91 976 548 
Q 359 1188 359 2328 
Q 359 3472 976 4111 
Q 1594 4750 2688 4750 
Q 3144 4750 3555 4637 
Q 3966 4525 4313 4306 
L 4313 3634 
Q 3963 3931 3569 4081 
Q 3175 4231 2741 4231 
Q 1884 4231 1454 3753 
Q 1025 3275 1025 2328 
Q 1025 1384 1454 906 
Q 1884 428 2741 428 
Q 3075 428 3337 486 
Q 3600 544 3809 666 
z
" transform="scale(0.015625)"/>
      <path id="DejaVuSans-48" d="M 628 4666 
L 1259 4666 
L 1259 2753 
L 3553 2753 
L 3553 4666 
L 4184 4666 
L 4184 0 
L 3553 0 
L 3553 2222 
L 1259 2222 
L 1259 0 
L 628 0 
L 628 4666 
z
" transform="scale(0.015625)"/>
      <path id="DejaVuSans-7a" d="M 353 3500 
L 3084 3500 
L 3084 2975 
L 922 459 
L 3084 459 
L 3084 0 
L 275 0 
L 275 525 
L 2438 3041 
L 353 3041 
L 353 3500 
z
" transform="scale(0.015625)"/>
      <path id="DejaVuSans-Oblique-3ba" d="M 938 3500 
L 1531 3500 
L 1247 2047 
L 3041 3500 
L 3741 3500 
L 2106 2181 
L 3275 0 
L 2572 0 
L 1628 1806 
L 1122 1403 
L 850 0 
L 256 0 
L 938 3500 
z
" transform="scale(0.015625)"/>
      <path id="DejaVuSans-Oblique-66" d="M 3059 4863 
L 2969 4384 
L 2419 4384 
Q 2106 4384 1964 4261 
Q 1822 4138 1753 3809 
L 1691 3500 
L 2638 3500 
L 2553 3053 
L 1606 3053 
L 1013 0 
L 434 0 
L 1031 3053 
L 481 3053 
L 563 3500 
L 1113 3500 
L 1159 3744 
Q 1278 4363 1576 4613 
Q 1875 4863 2516 4863 
L 3059 4863 
z
" transform="scale(0.015625)"/>
      <path id="DejaVuSans-Oblique-69" d="M 1172 4863 
L 1747 4863 
L 1606 4134 
L 1031 4134 
L 1172 4863 
z
M 909 3500 
L 1484 3500 
L 800 0 
L 225 0 
L 909 3500 
z
" transform="scale(0.015625)"/>
      <path id="DejaVuSans-Oblique-74" d="M 2706 3500 
L 2619 3053 
L 1472 3053 
L 1100 1153 
Q 1081 1047 1072 975 
Q 1063 903 1063 863 
Q 1063 663 1183 572 
Q 1303 481 1569 481 
L 2150 481 
L 2053 0 
L 1503 0 
Q 991 0 739 200 
Q 488 400 488 806 
Q 488 878 497 964 
Q 506 1050 525 1153 
L 897 3053 
L 409 3053 
L 500 3500 
L 978 3500 
L 1172 4494 
L 1747 4494 
L 1556 3500 
L 2706 3500 
z
" transform="scale(0.015625)"/>
      <path id="DejaVuSans-Oblique-65" d="M 3078 2063 
Q 3088 2113 3092 2166 
Q 3097 2219 3097 2272 
Q 3097 2653 2873 2875 
Q 2650 3097 2266 3097 
Q 1838 3097 1509 2826 
Q 1181 2556 1013 2059 
L 3078 2063 
z
M 3578 1613 
L 903 1613 
Q 884 1494 878 1425 
Q 872 1356 872 1306 
Q 872 872 1139 634 
Q 1406 397 1894 397 
Q 2269 397 2603 481 
Q 2938 566 3225 728 
L 3116 159 
Q 2806 34 2476 -28 
Q 2147 -91 1806 -91 
Q 1078 -91 686 257 
Q 294 606 294 1247 
Q 294 1794 489 2264 
Q 684 2734 1063 3103 
Q 1306 3334 1642 3459 
Q 1978 3584 2356 3584 
Q 2950 3584 3301 3228 
Q 3653 2872 3653 2272 
Q 3653 2128 3634 1964 
Q 3616 1800 3578 1613 
z
" transform="scale(0.015625)"/>
      <path id="DejaVuSans-Oblique-72" d="M 2853 2969 
Q 2766 3016 2653 3041 
Q 2541 3066 2413 3066 
Q 1953 3066 1609 2717 
Q 1266 2369 1153 1784 
L 800 0 
L 225 0 
L 909 3500 
L 1484 3500 
L 1375 2956 
Q 1603 3259 1920 3421 
Q 2238 3584 2597 3584 
Q 2691 3584 2781 3573 
Q 2872 3563 2963 3538 
L 2853 2969 
z
" transform="scale(0.015625)"/>
      <path id="DejaVuSans-4d" d="M 628 4666 
L 1569 4666 
L 2759 1491 
L 3956 4666 
L 4897 4666 
L 4897 0 
L 4281 0 
L 4281 4097 
L 3078 897 
L 2444 897 
L 1241 4097 
L 1241 0 
L 628 0 
L 628 4666 
z
" transform="scale(0.015625)"/>
     </defs>
     <use xlink:href="#DejaVuSans-Oblique-6c" transform="translate(0 0.015625)"/>
     <use xlink:href="#DejaVuSans-3d" transform="translate(47.265625 0.015625)"/>
     <use xlink:href="#DejaVuSans-33" transform="translate(150.537109 0.015625)"/>
     <use xlink:href="#DejaVuSans-30" transform="translate(214.160156 0.015625)"/>
     <use xlink:href="#DejaVuSans-Oblique-6d" transform="translate(294.018879 0.015625)"/>
     <use xlink:href="#DejaVuSans-2c" transform="translate(391.430989 0.015625)"/>
     <use xlink:href="#DejaVuSans-Oblique-3c9" transform="translate(458.936196 0.015625)"/>
     <use xlink:href="#DejaVuSans-3d" transform="translate(562.158853 0.015625)"/>
     <use xlink:href="#DejaVuSans-32" transform="translate(665.430337 0.015625)"/>
     <use xlink:href="#DejaVuSans-Oblique-3c0" transform="translate(729.053384 0.015625)"/>
     <use xlink:href="#DejaVuSans-d7" transform="translate(808.740884 0.015625)"/>
     <use xlink:href="#DejaVuSans-38" transform="translate(912.012368 0.015625)"/>
     <use xlink:href="#DejaVuSans-2e" transform="translate(975.635415 0.015625)"/>
     <use xlink:href="#DejaVuSans-34" transform="translate(1007.422524 0.015625)"/>
     <use xlink:href="#DejaVuSans-30" transform="translate(1071.045571 0.015625)"/>
     <use xlink:href="#DejaVuSans-37" transform="translate(1134.668618 0.015625)"/>
     <use xlink:href="#DejaVuSans-30" transform="translate(1198.291665 0.015625)"/>
     <use xlink:href="#DejaVuSans-31" transform="translate(1261.914712 0.015625)"/>
     <use xlink:href="#DejaVuSans-39" transform="translate(1325.537759 0.015625)"/>
     <use xlink:href="#DejaVuSans-33" transform="translate(1389.160806 0.015625)"/>
     <use xlink:href="#DejaVuSans-33" transform="translate(1452.783853 0.015625)"/>
     <use xlink:href="#DejaVuSans-35" transform="translate(1516.406899 0.015625)"/>
     <use xlink:href="#DejaVuSans-34" transform="translate(1580.029946 0.015625)"/>
     <use xlink:href="#DejaVuSans-37" transform="translate(1643.652993 0.015625)"/>
     <use xlink:href="#DejaVuSans-39" transform="translate(1707.27604 0.015625)"/>
     <use xlink:href="#DejaVuSans-31" transform="translate(1770.899087 0.015625)"/>
     <use xlink:href="#DejaVuSans-33" transform="translate(1834.522134 0.015625)"/>
     <use xlink:href="#DejaVuSans-47" transform="translate(1914.380857 0.015625)"/>
     <use xlink:href="#DejaVuSans-48" transform="translate(1991.871091 0.015625)"/>
     <use xlink:href="#DejaVuSans-7a" transform="translate(2067.066404 0.015625)"/>
     <use xlink:href="#DejaVuSans-2c" transform="translate(2119.556638 0.015625)"/>
     <use xlink:href="#DejaVuSans-Oblique-3ba" transform="translate(2187.061846 0.015625)"/>
     <use xlink:href="#DejaVuSans-Oblique-66" transform="translate(2245.997393 -16.390625)scale(0.7)"/>
     <use xlink:href="#DejaVuSans-Oblique-69" transform="translate(2273.375322 0.015625)"/>
     <use xlink:href="#DejaVuSans-Oblique-6c" transform="translate(2301.158525 0.015625)"/>
     <use xlink:href="#DejaVuSans-Oblique-74" transform="translate(2328.941729 0.015625)"/>
     <use xlink:href="#DejaVuSans-Oblique-65" transform="translate(2368.150713 0.015625)"/>
     <use xlink:href="#DejaVuSans-Oblique-72" transform="translate(2429.67415 0.015625)"/>
     <use xlink:href="#DejaVuSans-3d" transform="translate(2490.269854 0.015625)"/>
     <use xlink:href="#DejaVuSans-32" transform="translate(2593.541338 0.015625)"/>
     <use xlink:href="#DejaVuSans-Oblique-3c0" transform="translate(2657.164385 0.015625)"/>
     <use xlink:href="#DejaVuSans-d7" transform="translate(2736.851885 0.015625)"/>
     <use xlink:href="#DejaVuSans-31" transform="translate(2840.123369 0.015625)"/>
     <use xlink:href="#DejaVuSans-33" transform="translate(2903.746416 0.015625)"/>
     <use xlink:href="#DejaVuSans-30" transform="translate(2967.369463 0.015625)"/>
     <use xlink:href="#DejaVuSans-2e" transform="translate(3030.99251 0.015625)"/>
     <use xlink:href="#DejaVuSans-30" transform="translate(3062.779619 0.015625)"/>
     <use xlink:href="#DejaVuSans-4d" transform="translate(3142.638342 0.015625)"/>
     <use xlink:href="#DejaVuSans-48" transform="translate(3228.917639 0.015625)"/>
     <use xlink:href="#DejaVuSans-7a" transform="translate(3304.112952 0.015625)"/>
     <use xlink:href="#DejaVuSans-2c" transform="translate(3356.603186 0.015625)"/>
     <use xlink:href="#DejaVuSans-Oblique-3ba" transform="translate(3424.108394 0.015625)"/>
     <use xlink:href="#DejaVuSans-Oblique-65" transform="translate(3483.04394 -16.390625)scale(0.7)"/>
     <use xlink:href="#DejaVuSans-Oblique-66" transform="translate(3526.110347 -16.390625)scale(0.7)"/>
     <use xlink:href="#DejaVuSans-Oblique-66" transform="translate(3550.753901 -16.390625)scale(0.7)"/>
     <use xlink:href="#DejaVuSans-3d" transform="translate(3597.614253 0.015625)"/>
     <use xlink:href="#DejaVuSans-31" transform="translate(3700.885737 0.015625)"/>
     <use xlink:href="#DejaVuSans-39" transform="translate(3764.508784 0.015625)"/>
     <use xlink:href="#DejaVuSans-2e" transform="translate(3828.131831 0.015625)"/>
     <use xlink:href="#DejaVuSans-32" transform="translate(3854.41894 0.015625)"/>
     <use xlink:href="#DejaVuSans-33" transform="translate(3918.041987 0.015625)"/>
     <use xlink:href="#DejaVuSans-31" transform="translate(3981.665034 0.015625)"/>
    </g>
   </g>
   <g id="legend_1">
    <g id="patch_7">
     <path d="M 342.865 235.4485 
L 481.015 235.4485 
Q 484.215 235.4485 484.215 232.2485 
L 484.215 69.4535 
Q 484.215 66.2535 481.015 66.2535 
L 342.865 66.2535 
Q 339.665 66.2535 339.665 69.4535 
L 339.665 232.2485 
Q 339.665 235.4485 342.865 235.4485 
z
" style="fill: #ffffff; opacity: 0.8; stroke: #cccccc; stroke-linejoin: miter"/>
    </g>
    <g id="line2d_18">
     <path d="M 346.065 79.211 
L 362.065 79.211 
L 378.065 79.211 
" style="fill: none; stroke: #1f77b4; stroke-width: 1.5; stroke-linecap: square"/>
    </g>
    <g id="text_7">
     <!-- qubit 1 -->
     <g transform="translate(390.865 84.811)scale(0.16 -0.16)">
      <defs>
       <path id="DejaVuSans-71" d="M 947 1747 
Q 947 1113 1208 752 
Q 1469 391 1925 391 
Q 2381 391 2643 752 
Q 2906 1113 2906 1747 
Q 2906 2381 2643 2742 
Q 2381 3103 1925 3103 
Q 1469 3103 1208 2742 
Q 947 2381 947 1747 
z
M 2906 525 
Q 2725 213 2448 61 
Q 2172 -91 1784 -91 
Q 1150 -91 751 415 
Q 353 922 353 1747 
Q 353 2572 751 3078 
Q 1150 3584 1784 3584 
Q 2172 3584 2448 3432 
Q 2725 3281 2906 2969 
L 2906 3500 
L 3481 3500 
L 3481 -1331 
L 2906 -1331 
L 2906 525 
z
" transform="scale(0.015625)"/>
       <path id="DejaVuSans-75" d="M 544 1381 
L 544 3500 
L 1119 3500 
L 1119 1403 
Q 1119 906 1312 657 
Q 1506 409 1894 409 
Q 2359 409 2629 706 
Q 2900 1003 2900 1516 
L 2900 3500 
L 3475 3500 
L 3475 0 
L 2900 0 
L 2900 538 
Q 2691 219 2414 64 
Q 2138 -91 1772 -91 
Q 1169 -91 856 284 
Q 544 659 544 1381 
z
M 1991 3584 
L 1991 3584 
z
" transform="scale(0.015625)"/>
       <path id="DejaVuSans-62" d="M 3116 1747 
Q 3116 2381 2855 2742 
Q 2594 3103 2138 3103 
Q 1681 3103 1420 2742 
Q 1159 2381 1159 1747 
Q 1159 1113 1420 752 
Q 1681 391 2138 391 
Q 2594 391 2855 752 
Q 3116 1113 3116 1747 
z
M 1159 2969 
Q 1341 3281 1617 3432 
Q 1894 3584 2278 3584 
Q 2916 3584 3314 3078 
Q 3713 2572 3713 1747 
Q 3713 922 3314 415 
Q 2916 -91 2278 -91 
Q 1894 -91 1617 61 
Q 1341 213 1159 525 
L 1159 0 
L 581 0 
L 581 4863 
L 1159 4863 
L 1159 2969 
z
" transform="scale(0.015625)"/>
       <path id="DejaVuSans-69" d="M 603 3500 
L 1178 3500 
L 1178 0 
L 603 0 
L 603 3500 
z
M 603 4863 
L 1178 4863 
L 1178 4134 
L 603 4134 
L 603 4863 
z
" transform="scale(0.015625)"/>
       <path id="DejaVuSans-74" d="M 1172 4494 
L 1172 3500 
L 2356 3500 
L 2356 3053 
L 1172 3053 
L 1172 1153 
Q 1172 725 1289 603 
Q 1406 481 1766 481 
L 2356 481 
L 2356 0 
L 1766 0 
Q 1100 0 847 248 
Q 594 497 594 1153 
L 594 3053 
L 172 3053 
L 172 3500 
L 594 3500 
L 594 4494 
L 1172 4494 
z
" transform="scale(0.015625)"/>
       <path id="DejaVuSans-20" transform="scale(0.015625)"/>
      </defs>
      <use xlink:href="#DejaVuSans-71"/>
      <use xlink:href="#DejaVuSans-75" x="63.476562"/>
      <use xlink:href="#DejaVuSans-62" x="126.855469"/>
      <use xlink:href="#DejaVuSans-69" x="190.332031"/>
      <use xlink:href="#DejaVuSans-74" x="218.115234"/>
      <use xlink:href="#DejaVuSans-20" x="257.324219"/>
      <use xlink:href="#DejaVuSans-31" x="289.111328"/>
     </g>
    </g>
    <g id="line2d_19">
     <path d="M 346.065 102.696 
L 362.065 102.696 
L 378.065 102.696 
" style="fill: none; stroke-dasharray: 5.55,2.4; stroke-dashoffset: 0; stroke: #ff7f0e; stroke-width: 1.5"/>
    </g>
    <g id="text_8">
     <!-- cavity 1 -->
     <g transform="translate(390.865 108.296)scale(0.16 -0.16)">
      <defs>
       <path id="DejaVuSans-63" d="M 3122 3366 
L 3122 2828 
Q 2878 2963 2633 3030 
Q 2388 3097 2138 3097 
Q 1578 3097 1268 2742 
Q 959 2388 959 1747 
Q 959 1106 1268 751 
Q 1578 397 2138 397 
Q 2388 397 2633 464 
Q 2878 531 3122 666 
L 3122 134 
Q 2881 22 2623 -34 
Q 2366 -91 2075 -91 
Q 1284 -91 818 406 
Q 353 903 353 1747 
Q 353 2603 823 3093 
Q 1294 3584 2113 3584 
Q 2378 3584 2631 3529 
Q 2884 3475 3122 3366 
z
" transform="scale(0.015625)"/>
       <path id="DejaVuSans-61" d="M 2194 1759 
Q 1497 1759 1228 1600 
Q 959 1441 959 1056 
Q 959 750 1161 570 
Q 1363 391 1709 391 
Q 2188 391 2477 730 
Q 2766 1069 2766 1631 
L 2766 1759 
L 2194 1759 
z
M 3341 1997 
L 3341 0 
L 2766 0 
L 2766 531 
Q 2569 213 2275 61 
Q 1981 -91 1556 -91 
Q 1019 -91 701 211 
Q 384 513 384 1019 
Q 384 1609 779 1909 
Q 1175 2209 1959 2209 
L 2766 2209 
L 2766 2266 
Q 2766 2663 2505 2880 
Q 2244 3097 1772 3097 
Q 1472 3097 1187 3025 
Q 903 2953 641 2809 
L 641 3341 
Q 956 3463 1253 3523 
Q 1550 3584 1831 3584 
Q 2591 3584 2966 3190 
Q 3341 2797 3341 1997 
z
" transform="scale(0.015625)"/>
       <path id="DejaVuSans-76" d="M 191 3500 
L 800 3500 
L 1894 563 
L 2988 3500 
L 3597 3500 
L 2284 0 
L 1503 0 
L 191 3500 
z
" transform="scale(0.015625)"/>
       <path id="DejaVuSans-79" d="M 2059 -325 
Q 1816 -950 1584 -1140 
Q 1353 -1331 966 -1331 
L 506 -1331 
L 506 -850 
L 844 -850 
Q 1081 -850 1212 -737 
Q 1344 -625 1503 -206 
L 1606 56 
L 191 3500 
L 800 3500 
L 1894 763 
L 2988 3500 
L 3597 3500 
L 2059 -325 
z
" transform="scale(0.015625)"/>
      </defs>
      <use xlink:href="#DejaVuSans-63"/>
      <use xlink:href="#DejaVuSans-61" x="54.980469"/>
      <use xlink:href="#DejaVuSans-76" x="116.259766"/>
      <use xlink:href="#DejaVuSans-69" x="175.439453"/>
      <use xlink:href="#DejaVuSans-74" x="203.222656"/>
      <use xlink:href="#DejaVuSans-79" x="242.431641"/>
      <use xlink:href="#DejaVuSans-20" x="301.611328"/>
      <use xlink:href="#DejaVuSans-31" x="333.398438"/>
     </g>
    </g>
    <g id="line2d_20">
     <path d="M 346.065 126.181 
L 362.065 126.181 
L 378.065 126.181 
" style="fill: none; stroke-dasharray: 5.55,2.4; stroke-dashoffset: 0; stroke: #2ca02c; stroke-width: 1.5"/>
    </g>
    <g id="text_9">
     <!-- Purcell 1 -->
     <g transform="translate(390.865 131.781)scale(0.16 -0.16)">
      <defs>
       <path id="DejaVuSans-50" d="M 1259 4147 
L 1259 2394 
L 2053 2394 
Q 2494 2394 2734 2622 
Q 2975 2850 2975 3272 
Q 2975 3691 2734 3919 
Q 2494 4147 2053 4147 
L 1259 4147 
z
M 628 4666 
L 2053 4666 
Q 2838 4666 3239 4311 
Q 3641 3956 3641 3272 
Q 3641 2581 3239 2228 
Q 2838 1875 2053 1875 
L 1259 1875 
L 1259 0 
L 628 0 
L 628 4666 
z
" transform="scale(0.015625)"/>
       <path id="DejaVuSans-72" d="M 2631 2963 
Q 2534 3019 2420 3045 
Q 2306 3072 2169 3072 
Q 1681 3072 1420 2755 
Q 1159 2438 1159 1844 
L 1159 0 
L 581 0 
L 581 3500 
L 1159 3500 
L 1159 2956 
Q 1341 3275 1631 3429 
Q 1922 3584 2338 3584 
Q 2397 3584 2469 3576 
Q 2541 3569 2628 3553 
L 2631 2963 
z
" transform="scale(0.015625)"/>
       <path id="DejaVuSans-65" d="M 3597 1894 
L 3597 1613 
L 953 1613 
Q 991 1019 1311 708 
Q 1631 397 2203 397 
Q 2534 397 2845 478 
Q 3156 559 3463 722 
L 3463 178 
Q 3153 47 2828 -22 
Q 2503 -91 2169 -91 
Q 1331 -91 842 396 
Q 353 884 353 1716 
Q 353 2575 817 3079 
Q 1281 3584 2069 3584 
Q 2775 3584 3186 3129 
Q 3597 2675 3597 1894 
z
M 3022 2063 
Q 3016 2534 2758 2815 
Q 2500 3097 2075 3097 
Q 1594 3097 1305 2825 
Q 1016 2553 972 2059 
L 3022 2063 
z
" transform="scale(0.015625)"/>
       <path id="DejaVuSans-6c" d="M 603 4863 
L 1178 4863 
L 1178 0 
L 603 0 
L 603 4863 
z
" transform="scale(0.015625)"/>
      </defs>
      <use xlink:href="#DejaVuSans-50"/>
      <use xlink:href="#DejaVuSans-75" x="58.552734"/>
      <use xlink:href="#DejaVuSans-72" x="121.931641"/>
      <use xlink:href="#DejaVuSans-63" x="160.794922"/>
      <use xlink:href="#DejaVuSans-65" x="215.775391"/>
      <use xlink:href="#DejaVuSans-6c" x="277.298828"/>
      <use xlink:href="#DejaVuSans-6c" x="305.082031"/>
      <use xlink:href="#DejaVuSans-20" x="332.865234"/>
      <use xlink:href="#DejaVuSans-31" x="364.652344"/>
     </g>
    </g>
    <g id="line2d_21">
     <path d="M 346.065 149.666 
L 362.065 149.666 
L 378.065 149.666 
" style="fill: none; stroke-dasharray: 9.6,2.4,1.5,2.4; stroke-dashoffset: 0; stroke: #d62728; stroke-width: 1.5"/>
    </g>
    <g id="text_10">
     <!-- waveguide -->
     <g transform="translate(390.865 155.266)scale(0.16 -0.16)">
      <defs>
       <path id="DejaVuSans-77" d="M 269 3500 
L 844 3500 
L 1563 769 
L 2278 3500 
L 2956 3500 
L 3675 769 
L 4391 3500 
L 4966 3500 
L 4050 0 
L 3372 0 
L 2619 2869 
L 1863 0 
L 1184 0 
L 269 3500 
z
" transform="scale(0.015625)"/>
       <path id="DejaVuSans-67" d="M 2906 1791 
Q 2906 2416 2648 2759 
Q 2391 3103 1925 3103 
Q 1463 3103 1205 2759 
Q 947 2416 947 1791 
Q 947 1169 1205 825 
Q 1463 481 1925 481 
Q 2391 481 2648 825 
Q 2906 1169 2906 1791 
z
M 3481 434 
Q 3481 -459 3084 -895 
Q 2688 -1331 1869 -1331 
Q 1566 -1331 1297 -1286 
Q 1028 -1241 775 -1147 
L 775 -588 
Q 1028 -725 1275 -790 
Q 1522 -856 1778 -856 
Q 2344 -856 2625 -561 
Q 2906 -266 2906 331 
L 2906 616 
Q 2728 306 2450 153 
Q 2172 0 1784 0 
Q 1141 0 747 490 
Q 353 981 353 1791 
Q 353 2603 747 3093 
Q 1141 3584 1784 3584 
Q 2172 3584 2450 3431 
Q 2728 3278 2906 2969 
L 2906 3500 
L 3481 3500 
L 3481 434 
z
" transform="scale(0.015625)"/>
       <path id="DejaVuSans-64" d="M 2906 2969 
L 2906 4863 
L 3481 4863 
L 3481 0 
L 2906 0 
L 2906 525 
Q 2725 213 2448 61 
Q 2172 -91 1784 -91 
Q 1150 -91 751 415 
Q 353 922 353 1747 
Q 353 2572 751 3078 
Q 1150 3584 1784 3584 
Q 2172 3584 2448 3432 
Q 2725 3281 2906 2969 
z
M 947 1747 
Q 947 1113 1208 752 
Q 1469 391 1925 391 
Q 2381 391 2643 752 
Q 2906 1113 2906 1747 
Q 2906 2381 2643 2742 
Q 2381 3103 1925 3103 
Q 1469 3103 1208 2742 
Q 947 2381 947 1747 
z
" transform="scale(0.015625)"/>
      </defs>
      <use xlink:href="#DejaVuSans-77"/>
      <use xlink:href="#DejaVuSans-61" x="81.787109"/>
      <use xlink:href="#DejaVuSans-76" x="143.066406"/>
      <use xlink:href="#DejaVuSans-65" x="202.246094"/>
      <use xlink:href="#DejaVuSans-67" x="263.769531"/>
      <use xlink:href="#DejaVuSans-75" x="327.246094"/>
      <use xlink:href="#DejaVuSans-69" x="390.625"/>
      <use xlink:href="#DejaVuSans-64" x="418.408203"/>
      <use xlink:href="#DejaVuSans-65" x="481.884766"/>
     </g>
    </g>
    <g id="line2d_22">
     <path d="M 346.065 173.151 
L 362.065 173.151 
L 378.065 173.151 
" style="fill: none; stroke-dasharray: 5.55,2.4; stroke-dashoffset: 0; stroke: #9467bd; stroke-width: 1.5"/>
    </g>
    <g id="text_11">
     <!-- Purcell 2 -->
     <g transform="translate(390.865 178.751)scale(0.16 -0.16)">
      <use xlink:href="#DejaVuSans-50"/>
      <use xlink:href="#DejaVuSans-75" x="58.552734"/>
      <use xlink:href="#DejaVuSans-72" x="121.931641"/>
      <use xlink:href="#DejaVuSans-63" x="160.794922"/>
      <use xlink:href="#DejaVuSans-65" x="215.775391"/>
      <use xlink:href="#DejaVuSans-6c" x="277.298828"/>
      <use xlink:href="#DejaVuSans-6c" x="305.082031"/>
      <use xlink:href="#DejaVuSans-20" x="332.865234"/>
      <use xlink:href="#DejaVuSans-32" x="364.652344"/>
     </g>
    </g>
    <g id="line2d_23">
     <path d="M 346.065 196.636 
L 362.065 196.636 
L 378.065 196.636 
" style="fill: none; stroke-dasharray: 5.55,2.4; stroke-dashoffset: 0; stroke: #8c564b; stroke-width: 1.5"/>
    </g>
    <g id="text_12">
     <!-- cavity 2 -->
     <g transform="translate(390.865 202.236)scale(0.16 -0.16)">
      <use xlink:href="#DejaVuSans-63"/>
      <use xlink:href="#DejaVuSans-61" x="54.980469"/>
      <use xlink:href="#DejaVuSans-76" x="116.259766"/>
      <use xlink:href="#DejaVuSans-69" x="175.439453"/>
      <use xlink:href="#DejaVuSans-74" x="203.222656"/>
      <use xlink:href="#DejaVuSans-79" x="242.431641"/>
      <use xlink:href="#DejaVuSans-20" x="301.611328"/>
      <use xlink:href="#DejaVuSans-32" x="333.398438"/>
     </g>
    </g>
    <g id="line2d_24">
     <path d="M 346.065 220.121 
L 362.065 220.121 
L 378.065 220.121 
" style="fill: none; stroke: #e377c2; stroke-width: 1.5; stroke-linecap: square"/>
    </g>
    <g id="text_13">
     <!-- qubit 2 -->
     <g transform="translate(390.865 225.721)scale(0.16 -0.16)">
      <use xlink:href="#DejaVuSans-71"/>
      <use xlink:href="#DejaVuSans-75" x="63.476562"/>
      <use xlink:href="#DejaVuSans-62" x="126.855469"/>
      <use xlink:href="#DejaVuSans-69" x="190.332031"/>
      <use xlink:href="#DejaVuSans-74" x="218.115234"/>
      <use xlink:href="#DejaVuSans-20" x="257.324219"/>
      <use xlink:href="#DejaVuSans-32" x="289.111328"/>
     </g>
    </g>
   </g>
  </g>
  <g id="axes_2">
   <g id="patch_8">
    <path d="M 125.48 502.504 
L 698.4 502.504 
L 698.4 284.802 
L 125.48 284.802 
z
" style="fill: #ffffff"/>
   </g>
   <g id="matplotlib.axis_3">
    <g id="xtick_6">
     <g id="line2d_25">
      <g>
       <use xlink:href="#m9fd7451e8e" x="215.995027" y="502.504" style="stroke: #000000; stroke-width: 0.8"/>
      </g>
     </g>
     <g id="text_14">
      <!-- −100 -->
      <g transform="translate(188.527839 524.700875)scale(0.2 -0.2)">
       <defs>
        <path id="DejaVuSans-2212" d="M 678 2272 
L 4684 2272 
L 4684 1741 
L 678 1741 
L 678 2272 
z
" transform="scale(0.015625)"/>
       </defs>
       <use xlink:href="#DejaVuSans-2212"/>
       <use xlink:href="#DejaVuSans-31" x="83.789062"/>
       <use xlink:href="#DejaVuSans-30" x="147.412109"/>
       <use xlink:href="#DejaVuSans-30" x="211.035156"/>
      </g>
     </g>
    </g>
    <g id="xtick_7">
     <g id="line2d_26">
      <g>
       <use xlink:href="#m9fd7451e8e" x="313.967513" y="502.504" style="stroke: #000000; stroke-width: 0.8"/>
      </g>
     </g>
     <g id="text_15">
      <!-- −50 -->
      <g transform="translate(292.862826 524.700875)scale(0.2 -0.2)">
       <use xlink:href="#DejaVuSans-2212"/>
       <use xlink:href="#DejaVuSans-35" x="83.789062"/>
       <use xlink:href="#DejaVuSans-30" x="147.412109"/>
      </g>
     </g>
    </g>
    <g id="xtick_8">
     <g id="line2d_27">
      <g>
       <use xlink:href="#m9fd7451e8e" x="411.94" y="502.504" style="stroke: #000000; stroke-width: 0.8"/>
      </g>
     </g>
     <g id="text_16">
      <!-- 0 -->
      <g transform="translate(405.5775 524.700875)scale(0.2 -0.2)">
       <use xlink:href="#DejaVuSans-30"/>
      </g>
     </g>
    </g>
    <g id="xtick_9">
     <g id="line2d_28">
      <g>
       <use xlink:href="#m9fd7451e8e" x="509.912487" y="502.504" style="stroke: #000000; stroke-width: 0.8"/>
      </g>
     </g>
     <g id="text_17">
      <!-- 50 -->
      <g transform="translate(497.187487 524.700875)scale(0.2 -0.2)">
       <use xlink:href="#DejaVuSans-35"/>
       <use xlink:href="#DejaVuSans-30" x="63.623047"/>
      </g>
     </g>
    </g>
    <g id="xtick_10">
     <g id="line2d_29">
      <g>
       <use xlink:href="#m9fd7451e8e" x="607.884973" y="502.504" style="stroke: #000000; stroke-width: 0.8"/>
      </g>
     </g>
     <g id="text_18">
      <!-- 100 -->
      <g transform="translate(588.797473 524.700875)scale(0.2 -0.2)">
       <use xlink:href="#DejaVuSans-31"/>
       <use xlink:href="#DejaVuSans-30" x="63.623047"/>
       <use xlink:href="#DejaVuSans-30" x="127.246094"/>
      </g>
     </g>
    </g>
    <g id="text_19">
     <!-- $t\kappa_1$ -->
     <g transform="translate(397.34 548.057125)scale(0.2 -0.2)">
      <use xlink:href="#DejaVuSans-Oblique-74" transform="translate(0 0.78125)"/>
      <use xlink:href="#DejaVuSans-Oblique-3ba" transform="translate(39.208984 0.78125)"/>
      <use xlink:href="#DejaVuSans-31" transform="translate(98.144531 -15.625)scale(0.7)"/>
     </g>
    </g>
   </g>
   <g id="matplotlib.axis_4">
    <g id="ytick_6">
     <g id="line2d_30">
      <g>
       <use xlink:href="#m1c37168080" x="125.48" y="495.714327" style="stroke: #000000; stroke-width: 0.8"/>
      </g>
     </g>
     <g id="text_20">
      <!-- 0.0000 -->
      <g transform="translate(48.49875 503.312764)scale(0.2 -0.2)">
       <use xlink:href="#DejaVuSans-30"/>
       <use xlink:href="#DejaVuSans-2e" x="63.623047"/>
       <use xlink:href="#DejaVuSans-30" x="95.410156"/>
       <use xlink:href="#DejaVuSans-30" x="159.033203"/>
       <use xlink:href="#DejaVuSans-30" x="222.65625"/>
       <use xlink:href="#DejaVuSans-30" x="286.279297"/>
      </g>
     </g>
    </g>
    <g id="ytick_7">
     <g id="line2d_31">
      <g>
       <use xlink:href="#m1c37168080" x="125.48" y="446.677304" style="stroke: #000000; stroke-width: 0.8"/>
      </g>
     </g>
     <g id="text_21">
      <!-- 0.0025 -->
      <g transform="translate(48.49875 454.275741)scale(0.2 -0.2)">
       <use xlink:href="#DejaVuSans-30"/>
       <use xlink:href="#DejaVuSans-2e" x="63.623047"/>
       <use xlink:href="#DejaVuSans-30" x="95.410156"/>
       <use xlink:href="#DejaVuSans-30" x="159.033203"/>
       <use xlink:href="#DejaVuSans-32" x="222.65625"/>
       <use xlink:href="#DejaVuSans-35" x="286.279297"/>
      </g>
     </g>
    </g>
    <g id="ytick_8">
     <g id="line2d_32">
      <g>
       <use xlink:href="#m1c37168080" x="125.48" y="397.640281" style="stroke: #000000; stroke-width: 0.8"/>
      </g>
     </g>
     <g id="text_22">
      <!-- 0.0050 -->
      <g transform="translate(48.49875 405.238718)scale(0.2 -0.2)">
       <use xlink:href="#DejaVuSans-30"/>
       <use xlink:href="#DejaVuSans-2e" x="63.623047"/>
       <use xlink:href="#DejaVuSans-30" x="95.410156"/>
       <use xlink:href="#DejaVuSans-30" x="159.033203"/>
       <use xlink:href="#DejaVuSans-35" x="222.65625"/>
       <use xlink:href="#DejaVuSans-30" x="286.279297"/>
      </g>
     </g>
    </g>
    <g id="ytick_9">
     <g id="line2d_33">
      <g>
       <use xlink:href="#m1c37168080" x="125.48" y="348.603258" style="stroke: #000000; stroke-width: 0.8"/>
      </g>
     </g>
     <g id="text_23">
      <!-- 0.0075 -->
      <g transform="translate(48.49875 356.201695)scale(0.2 -0.2)">
       <use xlink:href="#DejaVuSans-30"/>
       <use xlink:href="#DejaVuSans-2e" x="63.623047"/>
       <use xlink:href="#DejaVuSans-30" x="95.410156"/>
       <use xlink:href="#DejaVuSans-30" x="159.033203"/>
       <use xlink:href="#DejaVuSans-37" x="222.65625"/>
       <use xlink:href="#DejaVuSans-35" x="286.279297"/>
      </g>
     </g>
    </g>
    <g id="ytick_10">
     <g id="line2d_34">
      <g>
       <use xlink:href="#m1c37168080" x="125.48" y="299.566235" style="stroke: #000000; stroke-width: 0.8"/>
      </g>
     </g>
     <g id="text_24">
      <!-- 0.0100 -->
      <g transform="translate(48.49875 307.164672)scale(0.2 -0.2)">
       <use xlink:href="#DejaVuSans-30"/>
       <use xlink:href="#DejaVuSans-2e" x="63.623047"/>
       <use xlink:href="#DejaVuSans-30" x="95.410156"/>
       <use xlink:href="#DejaVuSans-31" x="159.033203"/>
       <use xlink:href="#DejaVuSans-30" x="222.65625"/>
       <use xlink:href="#DejaVuSans-30" x="286.279297"/>
      </g>
     </g>
    </g>
    <g id="text_25">
     <!-- $g_i(t)/\kappa_i$ -->
     <g transform="translate(40.29875 425.453)rotate(-90)scale(0.2 -0.2)">
      <defs>
       <path id="DejaVuSans-Oblique-67" d="M 3816 3500 
L 3219 434 
Q 3047 -456 2561 -893 
Q 2075 -1331 1253 -1331 
Q 950 -1331 690 -1286 
Q 431 -1241 206 -1147 
L 313 -588 
Q 525 -725 762 -790 
Q 1000 -856 1269 -856 
Q 1816 -856 2167 -557 
Q 2519 -259 2631 300 
L 2681 563 
Q 2441 288 2122 144 
Q 1803 0 1434 0 
Q 903 0 598 351 
Q 294 703 294 1319 
Q 294 1803 478 2267 
Q 663 2731 997 3091 
Q 1219 3328 1514 3456 
Q 1809 3584 2131 3584 
Q 2484 3584 2746 3420 
Q 3009 3256 3138 2956 
L 3238 3500 
L 3816 3500 
z
M 2950 2216 
Q 2950 2641 2750 2872 
Q 2550 3103 2181 3103 
Q 1953 3103 1747 3012 
Q 1541 2922 1394 2759 
Q 1156 2491 1023 2127 
Q 891 1763 891 1375 
Q 891 944 1092 712 
Q 1294 481 1672 481 
Q 2219 481 2584 976 
Q 2950 1472 2950 2216 
z
" transform="scale(0.015625)"/>
       <path id="DejaVuSans-28" d="M 1984 4856 
Q 1566 4138 1362 3434 
Q 1159 2731 1159 2009 
Q 1159 1288 1364 580 
Q 1569 -128 1984 -844 
L 1484 -844 
Q 1016 -109 783 600 
Q 550 1309 550 2009 
Q 550 2706 781 3412 
Q 1013 4119 1484 4856 
L 1984 4856 
z
" transform="scale(0.015625)"/>
       <path id="DejaVuSans-29" d="M 513 4856 
L 1013 4856 
Q 1481 4119 1714 3412 
Q 1947 2706 1947 2009 
Q 1947 1309 1714 600 
Q 1481 -109 1013 -844 
L 513 -844 
Q 928 -128 1133 580 
Q 1338 1288 1338 2009 
Q 1338 2731 1133 3434 
Q 928 4138 513 4856 
z
" transform="scale(0.015625)"/>
       <path id="DejaVuSans-2f" d="M 1625 4666 
L 2156 4666 
L 531 -594 
L 0 -594 
L 1625 4666 
z
" transform="scale(0.015625)"/>
      </defs>
      <use xlink:href="#DejaVuSans-Oblique-67" transform="translate(0 0.125)"/>
      <use xlink:href="#DejaVuSans-Oblique-69" transform="translate(63.476562 -16.28125)scale(0.7)"/>
      <use xlink:href="#DejaVuSans-28" transform="translate(85.65918 0.125)"/>
      <use xlink:href="#DejaVuSans-Oblique-74" transform="translate(124.672852 0.125)"/>
      <use xlink:href="#DejaVuSans-29" transform="translate(163.881836 0.125)"/>
      <use xlink:href="#DejaVuSans-2f" transform="translate(202.895508 0.125)"/>
      <use xlink:href="#DejaVuSans-Oblique-3ba" transform="translate(236.586914 0.125)"/>
      <use xlink:href="#DejaVuSans-Oblique-69" transform="translate(295.522461 -16.28125)scale(0.7)"/>
     </g>
    </g>
   </g>
   <g id="line2d_35">
    <path d="M 151.521818 492.608455 
L 158.294949 491.703786 
L 164.373399 490.66973 
L 169.757169 489.533407 
L 174.61993 488.28879 
L 179.13535 486.910034 
L 183.30343 485.411629 
L 187.29784 483.7376 
L 190.944911 481.973576 
L 194.418311 480.05377 
L 197.718041 477.983698 
L 200.844101 475.772848 
L 203.970162 473.289261 
L 206.922552 470.664061 
L 209.874942 467.736696 
L 212.653662 464.676215 
L 215.432382 461.289575 
L 218.211102 457.545184 
L 220.989823 453.409565 
L 223.768543 448.847712 
L 226.373593 444.151895 
L 228.978643 439.02015 
L 231.757363 433.033344 
L 234.536084 426.485539 
L 237.314804 419.349711 
L 240.093524 411.607257 
L 243.045914 402.709804 
L 246.171974 392.552735 
L 249.471705 381.072963 
L 253.466115 366.327143 
L 264.928336 323.362555 
L 267.359716 315.42649 
L 269.443756 309.371663 
L 271.180456 304.977818 
L 272.743486 301.609356 
L 274.132846 299.13107 
L 275.348536 297.390596 
L 276.390556 296.232767 
L 277.432576 295.393752 
L 278.300926 294.943314 
L 279.169276 294.721782 
L 280.037626 294.730184 
L 280.905977 294.967987 
L 281.774327 295.43308 
L 282.816347 296.285891 
L 283.858367 297.451228 
L 285.074057 299.18897 
L 286.289747 301.310176 
L 287.679107 304.165732 
L 289.242137 307.867049 
L 291.152507 312.980014 
L 293.583887 320.190234 
L 297.230958 331.814037 
L 302.614728 348.904384 
L 305.567118 357.517336 
L 308.172168 364.435926 
L 310.603548 370.251879 
L 312.861259 375.084012 
L 315.118969 379.380008 
L 317.203009 382.892449 
L 319.287049 385.998922 
L 321.371089 388.731835 
L 323.455129 391.125342 
L 325.712839 393.374946 
L 327.97055 395.308296 
L 330.40193 397.081675 
L 332.83331 398.578575 
L 335.43836 399.920936 
L 338.21708 401.10196 
L 341.16947 402.121994 
L 344.469201 403.029801 
L 348.289941 403.839369 
L 352.631691 404.520006 
L 357.668121 405.077672 
L 363.920242 405.532985 
L 371.909062 405.875878 
L 383.023943 406.11163 
L 401.085624 406.245313 
L 446.066157 406.28974 
L 672.358182 406.25859 
L 672.358182 406.25859 
" clip-path="url(#p0beddc0ca0)" style="fill: none; stroke: #1f77b4; stroke-width: 1.5; stroke-linecap: square"/>
   </g>
   <g id="line2d_36">
    <path d="M 151.521818 406.25859 
L 153.258518 406.27552 
L 157.079259 406.307997 
L 158.121279 406.304662 
L 159.684309 406.277671 
L 160.031649 406.299336 
L 160.899999 406.281831 
L 164.894409 406.291158 
L 165.589089 406.313807 
L 166.283769 406.283112 
L 168.541479 406.300045 
L 169.583499 406.281236 
L 171.493869 406.301006 
L 174.96727 406.295922 
L 177.74599 406.298903 
L 179.48269 406.292292 
L 184.34545 406.290884 
L 293.236547 406.291278 
L 434.256596 406.182095 
L 449.539557 405.945449 
L 458.917738 405.590201 
L 465.690868 405.124275 
L 471.074639 404.542925 
L 475.590059 403.839369 
L 479.410799 403.029801 
L 482.8842 402.067869 
L 486.01026 400.966945 
L 488.78898 399.756031 
L 491.39403 398.380091 
L 493.82541 396.846256 
L 496.08312 395.169891 
L 498.340831 393.213648 
L 500.424871 391.125342 
L 502.508911 388.731835 
L 504.592951 385.998922 
L 506.676991 382.892449 
L 508.761031 379.380008 
L 510.845071 375.433248 
L 512.929112 371.03085 
L 515.186822 365.735434 
L 517.618202 359.429092 
L 520.223252 352.028379 
L 523.349312 342.431905 
L 532.901163 312.492116 
L 534.985203 307.003569 
L 536.721903 303.043845 
L 538.284933 300.052729 
L 539.674293 297.907053 
L 540.889983 296.45871 
L 541.932003 295.553075 
L 542.974023 294.967987 
L 543.842374 294.730184 
L 544.710724 294.721782 
L 545.579074 294.943314 
L 546.447424 295.393752 
L 547.315774 296.070565 
L 548.357794 297.17587 
L 549.399814 298.591967 
L 550.615504 300.620845 
L 552.004864 303.408221 
L 553.567894 307.094141 
L 555.304594 311.798969 
L 557.388634 318.165156 
L 559.820015 326.377851 
L 562.946075 337.788955 
L 569.545535 363.031852 
L 574.234625 380.449296 
L 577.881696 393.136141 
L 581.181426 403.792205 
L 584.133816 412.608592 
L 587.086206 420.73347 
L 589.864926 427.757322 
L 592.643647 434.197685 
L 595.422367 440.082779 
L 598.201087 445.445517 
L 600.979807 450.32124 
L 603.758527 454.746062 
L 606.537248 458.755724 
L 609.315968 462.384805 
L 612.094688 465.666222 
L 615.047078 468.806381 
L 617.999468 471.623503 
L 621.125529 474.289505 
L 624.251589 476.663355 
L 627.551319 478.886514 
L 631.024719 480.94865 
L 634.671789 482.843719 
L 638.49253 484.569595 
L 642.48694 486.127616 
L 646.82869 487.575563 
L 651.51778 488.895055 
L 656.554211 490.075218 
L 662.111651 491.142055 
L 668.190102 492.079329 
L 672.358182 492.608455 
L 672.358182 492.608455 
" clip-path="url(#p0beddc0ca0)" style="fill: none; stroke: #ff7f0e; stroke-width: 1.5; stroke-linecap: square"/>
   </g>
   <g id="patch_9">
    <path d="M 125.48 502.504 
L 125.48 284.802 
" style="fill: none; stroke: #000000; stroke-width: 0.8; stroke-linejoin: miter; stroke-linecap: square"/>
   </g>
   <g id="patch_10">
    <path d="M 698.4 502.504 
L 698.4 284.802 
" style="fill: none; stroke: #000000; stroke-width: 0.8; stroke-linejoin: miter; stroke-linecap: square"/>
   </g>
   <g id="patch_11">
    <path d="M 125.48 502.504 
L 698.4 502.504 
" style="fill: none; stroke: #000000; stroke-width: 0.8; stroke-linejoin: miter; stroke-linecap: square"/>
   </g>
   <g id="patch_12">
    <path d="M 125.48 284.802 
L 698.4 284.802 
" style="fill: none; stroke: #000000; stroke-width: 0.8; stroke-linejoin: miter; stroke-linecap: square"/>
   </g>
   <g id="legend_2">
    <g id="patch_13">
     <path d="M 577.12 344.642 
L 687.2 344.642 
Q 690.4 344.642 690.4 341.442 
L 690.4 296.002 
Q 690.4 292.802 687.2 292.802 
L 577.12 292.802 
Q 573.92 292.802 573.92 296.002 
L 573.92 341.442 
Q 573.92 344.642 577.12 344.642 
z
" style="fill: #ffffff; opacity: 0.8; stroke: #cccccc; stroke-linejoin: miter"/>
    </g>
    <g id="line2d_37">
     <path d="M 580.32 305.762 
L 596.32 305.762 
L 612.32 305.762 
" style="fill: none; stroke: #1f77b4; stroke-width: 1.5; stroke-linecap: square"/>
    </g>
    <g id="text_26">
     <!-- $g_1(t)/\kappa_1$ -->
     <g transform="translate(625.12 311.362)scale(0.16 -0.16)">
      <use xlink:href="#DejaVuSans-Oblique-67" transform="translate(0 0.125)"/>
      <use xlink:href="#DejaVuSans-31" transform="translate(63.476562 -16.28125)scale(0.7)"/>
      <use xlink:href="#DejaVuSans-28" transform="translate(110.74707 0.125)"/>
      <use xlink:href="#DejaVuSans-Oblique-74" transform="translate(149.760742 0.125)"/>
      <use xlink:href="#DejaVuSans-29" transform="translate(188.969727 0.125)"/>
      <use xlink:href="#DejaVuSans-2f" transform="translate(227.983398 0.125)"/>
      <use xlink:href="#DejaVuSans-Oblique-3ba" transform="translate(261.674805 0.125)"/>
      <use xlink:href="#DejaVuSans-31" transform="translate(320.610352 -16.28125)scale(0.7)"/>
     </g>
    </g>
    <g id="line2d_38">
     <path d="M 580.32 329.282 
L 596.32 329.282 
L 612.32 329.282 
" style="fill: none; stroke: #ff7f0e; stroke-width: 1.5; stroke-linecap: square"/>
    </g>
    <g id="text_27">
     <!-- $g_2(t)/\kappa_2$ -->
     <g transform="translate(625.12 334.882)scale(0.16 -0.16)">
      <use xlink:href="#DejaVuSans-Oblique-67" transform="translate(0 0.125)"/>
      <use xlink:href="#DejaVuSans-32" transform="translate(63.476562 -16.28125)scale(0.7)"/>
      <use xlink:href="#DejaVuSans-28" transform="translate(110.74707 0.125)"/>
      <use xlink:href="#DejaVuSans-Oblique-74" transform="translate(149.760742 0.125)"/>
      <use xlink:href="#DejaVuSans-29" transform="translate(188.969727 0.125)"/>
      <use xlink:href="#DejaVuSans-2f" transform="translate(227.983398 0.125)"/>
      <use xlink:href="#DejaVuSans-Oblique-3ba" transform="translate(261.674805 0.125)"/>
      <use xlink:href="#DejaVuSans-32" transform="translate(320.610352 -16.28125)scale(0.7)"/>
     </g>
    </g>
   </g>
  </g>
 </g>
 <defs>
  <clipPath id="p5a6a6f1c0b">
   <rect x="125.48" y="42" width="572.92" height="217.702"/>
  </clipPath>
  <clipPath id="p0beddc0ca0">
   <rect x="125.48" y="284.802" width="572.92" height="217.702"/>
  </clipPath>
 </defs>
</svg>
