<?xml version="1.0" encoding="utf-8" standalone="no"?>
<!DOCTYPE svg PUBLIC "-//W3C//DTD SVG 1.1//EN"
  "http://www.w3.org/Graphics/SVG/1.1/DTD/svg11.dtd">
<svg xmlns:xlink="http://www.w3.org/1999/xlink" width="720pt" height="576pt" viewBox="0 0 720 576" xmlns="http://www.w3.org/2000/svg" version="1.1">
 <metadata>
  <rdf:RDF xmlns:dc="http://purl.org/dc/elements/1.1/" xmlns:cc="http://creativecommons.org/ns#" xmlns:rdf="http://www.w3.org/1999/02/22-rdf-syntax-ns#">
   <cc:Work>
    <dc:type rdf:resource="http://purl.org/dc/dcmitype/StillImage"/>
    <dc:date>2022-08-17T15:37:37.534389</dc:date>
    <dc:format>image/svg+xml</dc:format>
    <dc:creator>
     <cc:Agent>
      <dc:title>Matplotlib v3.5.3, https://matplotlib.org/</dc:title>
     </cc:Agent>
    </dc:creator>
   </cc:Work>
  </rdf:RDF>
 </metadata>
 <defs>
  <style type="text/css">*{stroke-linejoin: round; stroke-linecap: butt}</style>
 </defs>
 <g id="figure_1">
  <g id="patch_1">
   <path d="M 0 576 
L 720 576 
L 720 0 
L 0 0 
z
" style="fill: #ffffff"/>
  </g>
  <g id="axes_1">
   <g id="patch_2">
    <path d="M 125.48 259.702 
L 698.4 259.702 
L 698.4 42 
L 125.48 42 
z
" style="fill: #ffffff"/>
   </g>
   <g id="matplotlib.axis_1">
    <g id="xtick_1">
     <g id="line2d_1">
      <defs>
       <path id="md6360e8b0a" d="M 0 0 
L 0 3.5 
" style="stroke: #000000; stroke-width: 0.8"/>
      </defs>
      <g>
       <use xlink:href="#md6360e8b0a" x="215.995027" y="259.702" style="stroke: #000000; stroke-width: 0.8"/>
      </g>
     </g>
    </g>
    <g id="xtick_2">
     <g id="line2d_2">
      <g>
       <use xlink:href="#md6360e8b0a" x="313.967513" y="259.702" style="stroke: #000000; stroke-width: 0.8"/>
      </g>
     </g>
    </g>
    <g id="xtick_3">
     <g id="line2d_3">
      <g>
       <use xlink:href="#md6360e8b0a" x="411.94" y="259.702" style="stroke: #000000; stroke-width: 0.8"/>
      </g>
     </g>
    </g>
    <g id="xtick_4">
     <g id="line2d_4">
      <g>
       <use xlink:href="#md6360e8b0a" x="509.912487" y="259.702" style="stroke: #000000; stroke-width: 0.8"/>
      </g>
     </g>
    </g>
    <g id="xtick_5">
     <g id="line2d_5">
      <g>
       <use xlink:href="#md6360e8b0a" x="607.884973" y="259.702" style="stroke: #000000; stroke-width: 0.8"/>
      </g>
     </g>
    </g>
   </g>
   <g id="matplotlib.axis_2">
    <g id="ytick_1">
     <g id="line2d_6">
      <defs>
       <path id="mf64cfa6f68" d="M 0 0 
L -3.5 0 
" style="stroke: #000000; stroke-width: 0.8"/>
      </defs>
      <g>
       <use xlink:href="#mf64cfa6f68" x="125.48" y="249.806455" style="stroke: #000000; stroke-width: 0.8"/>
      </g>
     </g>
     <g id="text_1">
      <!-- 0.00 -->
      <g transform="translate(73.94875 257.404892)scale(0.2 -0.2)">
       <defs>
        <path id="DejaVuSans-30" d="M 2034 4250 
Q 1547 4250 1301 3770 
Q 1056 3291 1056 2328 
Q 1056 1369 1301 889 
Q 1547 409 2034 409 
Q 2525 409 2770 889 
Q 3016 1369 3016 2328 
Q 3016 3291 2770 3770 
Q 2525 4250 2034 4250 
z
M 2034 4750 
Q 2819 4750 3233 4129 
Q 3647 3509 3647 2328 
Q 3647 1150 3233 529 
Q 2819 -91 2034 -91 
Q 1250 -91 836 529 
Q 422 1150 422 2328 
Q 422 3509 836 4129 
Q 1250 4750 2034 4750 
z
" transform="scale(0.015625)"/>
        <path id="DejaVuSans-2e" d="M 684 794 
L 1344 794 
L 1344 0 
L 684 0 
L 684 794 
z
" transform="scale(0.015625)"/>
       </defs>
       <use xlink:href="#DejaVuSans-30"/>
       <use xlink:href="#DejaVuSans-2e" x="63.623047"/>
       <use xlink:href="#DejaVuSans-30" x="95.410156"/>
       <use xlink:href="#DejaVuSans-30" x="159.033203"/>
      </g>
     </g>
    </g>
    <g id="ytick_2">
     <g id="line2d_7">
      <g>
       <use xlink:href="#mf64cfa6f68" x="125.48" y="200.328727" style="stroke: #000000; stroke-width: 0.8"/>
      </g>
     </g>
     <g id="text_2">
      <!-- 0.25 -->
      <g transform="translate(73.94875 207.927165)scale(0.2 -0.2)">
       <defs>
        <path id="DejaVuSans-32" d="M 1228 531 
L 3431 531 
L 3431 0 
L 469 0 
L 469 531 
Q 828 903 1448 1529 
Q 2069 2156 2228 2338 
Q 2531 2678 2651 2914 
Q 2772 3150 2772 3378 
Q 2772 3750 2511 3984 
Q 2250 4219 1831 4219 
Q 1534 4219 1204 4116 
Q 875 4013 500 3803 
L 500 4441 
Q 881 4594 1212 4672 
Q 1544 4750 1819 4750 
Q 2544 4750 2975 4387 
Q 3406 4025 3406 3419 
Q 3406 3131 3298 2873 
Q 3191 2616 2906 2266 
Q 2828 2175 2409 1742 
Q 1991 1309 1228 531 
z
" transform="scale(0.015625)"/>
        <path id="DejaVuSans-35" d="M 691 4666 
L 3169 4666 
L 3169 4134 
L 1269 4134 
L 1269 2991 
Q 1406 3038 1543 3061 
Q 1681 3084 1819 3084 
Q 2600 3084 3056 2656 
Q 3513 2228 3513 1497 
Q 3513 744 3044 326 
Q 2575 -91 1722 -91 
Q 1428 -91 1123 -41 
Q 819 9 494 109 
L 494 744 
Q 775 591 1075 516 
Q 1375 441 1709 441 
Q 2250 441 2565 725 
Q 2881 1009 2881 1497 
Q 2881 1984 2565 2268 
Q 2250 2553 1709 2553 
Q 1456 2553 1204 2497 
Q 953 2441 691 2322 
L 691 4666 
z
" transform="scale(0.015625)"/>
       </defs>
       <use xlink:href="#DejaVuSans-30"/>
       <use xlink:href="#DejaVuSans-2e" x="63.623047"/>
       <use xlink:href="#DejaVuSans-32" x="95.410156"/>
       <use xlink:href="#DejaVuSans-35" x="159.033203"/>
      </g>
     </g>
    </g>
    <g id="ytick_3">
     <g id="line2d_8">
      <g>
       <use xlink:href="#mf64cfa6f68" x="125.48" y="150.851" style="stroke: #000000; stroke-width: 0.8"/>
      </g>
     </g>
     <g id="text_3">
      <!-- 0.50 -->
      <g transform="translate(73.94875 158.449437)scale(0.2 -0.2)">
       <use xlink:href="#DejaVuSans-30"/>
       <use xlink:href="#DejaVuSans-2e" x="63.623047"/>
       <use xlink:href="#DejaVuSans-35" x="95.410156"/>
       <use xlink:href="#DejaVuSans-30" x="159.033203"/>
      </g>
     </g>
    </g>
    <g id="ytick_4">
     <g id="line2d_9">
      <g>
       <use xlink:href="#mf64cfa6f68" x="125.48" y="101.373273" style="stroke: #000000; stroke-width: 0.8"/>
      </g>
     </g>
     <g id="text_4">
      <!-- 0.75 -->
      <g transform="translate(73.94875 108.97171)scale(0.2 -0.2)">
       <defs>
        <path id="DejaVuSans-37" d="M 525 4666 
L 3525 4666 
L 3525 4397 
L 1831 0 
L 1172 0 
L 2766 4134 
L 525 4134 
L 525 4666 
z
" transform="scale(0.015625)"/>
       </defs>
       <use xlink:href="#DejaVuSans-30"/>
       <use xlink:href="#DejaVuSans-2e" x="63.623047"/>
       <use xlink:href="#DejaVuSans-37" x="95.410156"/>
       <use xlink:href="#DejaVuSans-35" x="159.033203"/>
      </g>
     </g>
    </g>
    <g id="ytick_5">
     <g id="line2d_10">
      <g>
       <use xlink:href="#mf64cfa6f68" x="125.48" y="51.895545" style="stroke: #000000; stroke-width: 0.8"/>
      </g>
     </g>
     <g id="text_5">
      <!-- 1.00 -->
      <g transform="translate(73.94875 59.493983)scale(0.2 -0.2)">
       <defs>
        <path id="DejaVuSans-31" d="M 794 531 
L 1825 531 
L 1825 4091 
L 703 3866 
L 703 4441 
L 1819 4666 
L 2450 4666 
L 2450 531 
L 3481 531 
L 3481 0 
L 794 0 
L 794 531 
z
" transform="scale(0.015625)"/>
       </defs>
       <use xlink:href="#DejaVuSans-31"/>
       <use xlink:href="#DejaVuSans-2e" x="63.623047"/>
       <use xlink:href="#DejaVuSans-30" x="95.410156"/>
       <use xlink:href="#DejaVuSans-30" x="159.033203"/>
      </g>
     </g>
    </g>
   </g>
   <g id="line2d_11">
    <path d="M 151.521818 51.895545 
L 180.35104 52.006045 
L 193.028951 52.262219 
L 201.365111 52.637949 
L 207.790902 53.144027 
L 212.827332 53.753533 
L 217.169082 54.499134 
L 220.816153 55.341028 
L 224.115883 56.324738 
L 227.068273 57.430584 
L 229.846993 58.711403 
L 232.452043 60.167646 
L 234.883424 61.792116 
L 237.141134 63.569039 
L 239.398844 65.644929 
L 241.482884 67.864187 
L 243.566924 70.412641 
L 245.650964 73.329979 
L 247.735004 76.657578 
L 249.819045 80.437428 
L 251.903085 84.710618 
L 253.987125 89.515314 
L 256.071165 94.884204 
L 258.328875 101.364857 
L 260.586585 108.550095 
L 263.017965 117.066159 
L 265.623016 127.032527 
L 268.575406 139.235935 
L 272.569816 156.808829 
L 279.690286 188.309925 
L 282.469007 199.561991 
L 284.900387 208.528396 
L 286.984427 215.440819 
L 289.068467 221.580838 
L 290.978837 226.51439 
L 292.715537 230.430874 
L 294.452237 233.828395 
L 296.188938 236.739773 
L 297.925638 239.205463 
L 299.662338 241.27054 
L 301.399038 242.981987 
L 303.135738 244.386419 
L 305.046108 245.629706 
L 306.956478 246.609765 
L 309.040518 247.435457 
L 311.471899 248.147116 
L 314.250619 248.713156 
L 317.550349 249.147116 
L 321.718429 249.461888 
L 327.62321 249.668878 
L 337.86974 249.772981 
L 373.124752 249.79368 
L 672.358182 249.793546 
L 672.358182 249.793546 
" clip-path="url(#p47f11a21a7)" style="fill: none; stroke: #1f77b4; stroke-width: 1.5; stroke-linecap: square"/>
   </g>
   <g id="line2d_12">
    <path d="M 151.521818 249.806455 
L 184.86646 249.695653 
L 199.281071 249.444775 
L 208.311912 249.078284 
L 215.085042 248.587885 
L 220.468813 247.980219 
L 224.984233 247.250758 
L 228.804973 246.419223 
L 232.278373 245.441903 
L 235.404434 244.337426 
L 238.356824 243.057248 
L 241.135544 241.603961 
L 243.740594 239.989129 
L 246.345644 238.098619 
L 248.777024 236.060012 
L 251.208405 233.736837 
L 253.639785 231.116775 
L 256.244835 227.978789 
L 259.023555 224.275352 
L 262.323285 219.480077 
L 272.222476 204.737537 
L 274.306516 202.195119 
L 276.043216 200.405676 
L 277.606246 199.103816 
L 278.995606 198.224002 
L 280.211296 197.686323 
L 281.426987 197.376932 
L 282.642677 197.303048 
L 283.858367 197.467847 
L 285.074057 197.870306 
L 286.289747 198.505198 
L 287.679107 199.503315 
L 289.068467 200.772938 
L 290.631497 202.494004 
L 292.541867 204.957478 
L 294.799577 208.265315 
L 297.925638 213.283517 
L 304.872438 224.553113 
L 307.824828 228.84006 
L 310.429878 232.224933 
L 312.861259 235.019853 
L 315.292639 237.462289 
L 317.550349 239.427836 
L 319.981729 241.242583 
L 322.413109 242.774254 
L 325.018159 244.138857 
L 327.62321 245.257077 
L 330.5756 246.274569 
L 333.70166 247.115504 
L 337.34873 247.854973 
L 341.51681 248.460311 
L 346.379571 248.937209 
L 352.631691 249.313343 
L 360.967852 249.576039 
L 373.819433 249.735565 
L 401.085624 249.800683 
L 622.862229 249.806455 
L 672.358182 249.806452 
L 672.358182 249.806452 
" clip-path="url(#p47f11a21a7)" style="fill: none; stroke-dasharray: 5.55,2.4; stroke-dashoffset: 0; stroke: #ff7f0e; stroke-width: 1.5"/>
   </g>
   <g id="line2d_13">
    <path d="M 151.521818 249.806455 
L 212.306322 249.695883 
L 227.589283 249.456776 
L 237.314804 249.09377 
L 244.782614 248.597059 
L 251.034735 247.959991 
L 256.765845 247.149229 
L 262.496955 246.106495 
L 270.312106 244.423594 
L 276.911566 243.084455 
L 280.732307 242.528403 
L 284.032037 242.260421 
L 287.158097 242.222357 
L 290.284157 242.402309 
L 293.583887 242.810649 
L 297.578298 243.541906 
L 303.656748 244.921385 
L 311.645569 246.695831 
L 317.029339 247.649284 
L 322.239439 248.345019 
L 327.97055 248.882044 
L 334.74368 249.283476 
L 343.427181 249.561654 
L 356.278761 249.72937 
L 382.329263 249.799352 
L 564.682775 249.806455 
L 672.358182 249.806442 
L 672.358182 249.806442 
" clip-path="url(#p47f11a21a7)" style="fill: none; stroke-dasharray: 5.55,2.4; stroke-dashoffset: 0; stroke: #2ca02c; stroke-width: 1.5"/>
   </g>
   <g id="line2d_14">
    <path d="M 151.521818 249.806455 
L 191.986931 249.695666 
L 204.838512 249.440858 
L 213.348342 249.059522 
L 219.774133 248.553792 
L 224.810563 247.945453 
L 229.152313 247.202423 
L 232.799383 246.364961 
L 236.099114 245.388484 
L 239.051504 244.2934 
L 241.830224 243.028501 
L 244.435274 241.594821 
L 246.866654 240.001057 
L 249.124364 238.26432 
L 251.382075 236.243974 
L 253.466115 234.094163 
L 255.550155 231.638035 
L 257.634195 228.842517 
L 259.718235 225.674329 
L 261.802275 222.101184 
L 263.886315 218.093309 
L 265.970356 213.625304 
L 268.228066 208.244016 
L 270.485776 202.288521 
L 272.917156 195.2372 
L 275.522206 186.98164 
L 278.474596 176.841167 
L 281.947997 164.068094 
L 288.026447 140.658657 
L 292.715537 123.00223 
L 296.015268 111.44083 
L 298.793988 102.507298 
L 301.225368 95.389908 
L 303.483078 89.404899 
L 305.740788 84.031687 
L 307.824828 79.607421 
L 309.908868 75.678318 
L 311.992909 72.217095 
L 314.076949 69.19051 
L 316.160989 66.561711 
L 318.245029 64.29224 
L 320.329069 62.343649 
L 322.586779 60.551663 
L 324.844489 59.048124 
L 327.27587 57.704797 
L 329.88092 56.532578 
L 332.65964 55.533089 
L 335.7857 54.657288 
L 339.2591 53.924704 
L 343.253511 53.316374 
L 348.116271 52.815086 
L 354.194721 52.429779 
L 362.357212 52.15554 
L 374.687783 51.988116 
L 399.869934 51.916311 
L 445.718817 51.993271 
L 459.438748 52.230006 
L 468.295919 52.595037 
L 474.895379 53.082485 
L 480.105479 53.680747 
L 484.44723 54.391299 
L 488.26797 55.235888 
L 491.5677 56.181689 
L 494.69376 57.312236 
L 497.472481 58.553179 
L 500.077531 59.960022 
L 502.508911 61.52443 
L 504.766621 63.229816 
L 507.024331 65.214584 
L 509.282041 67.516916 
L 511.366081 69.959122 
L 513.450122 72.739716 
L 515.534162 75.892152 
L 517.618202 79.448958 
L 519.702242 83.440207 
L 521.786282 87.89164 
L 524.043992 93.255447 
L 526.301702 99.194351 
L 528.733083 106.229133 
L 531.338133 114.468617 
L 534.290523 124.592526 
L 537.763923 137.346766 
L 544.016044 161.385461 
L 548.705134 178.96471 
L 551.831194 189.870103 
L 554.609914 198.784872 
L 557.041294 205.891521 
L 559.472675 212.307601 
L 561.730385 217.636529 
L 563.814425 222.025847 
L 565.898465 225.925232 
L 567.982505 229.360807 
L 570.066545 232.364197 
L 572.150585 234.970462 
L 574.234625 237.21635 
L 576.318666 239.138891 
L 578.402706 240.774317 
L 580.660416 242.262131 
L 582.918126 243.494699 
L 585.349506 244.579671 
L 588.128226 245.564167 
L 591.080617 246.369571 
L 594.380347 247.041796 
L 598.374757 247.617332 
L 603.237517 248.07576 
L 609.489638 248.424094 
L 618.346808 248.674213 
L 632.761419 248.832498 
L 661.416971 248.886518 
L 672.358182 248.88277 
L 672.358182 248.88277 
" clip-path="url(#p47f11a21a7)" style="fill: none; stroke-dasharray: 9.6,2.4,1.5,2.4; stroke-dashoffset: 0; stroke: #d62728; stroke-width: 1.5"/>
   </g>
   <g id="line2d_15">
    <path d="M 151.521818 249.806455 
L 468.295919 249.696579 
L 484.44723 249.463495 
L 494.34642 249.111196 
L 501.814231 248.630968 
L 507.892681 248.027493 
L 513.450122 247.253651 
L 518.660222 246.306734 
L 524.391332 245.03476 
L 536.374563 242.288889 
L 539.847963 241.784801 
L 542.800353 241.57093 
L 545.579074 241.580937 
L 548.357794 241.805003 
L 551.310184 242.264552 
L 554.783584 243.046329 
L 559.472675 244.356719 
L 567.808835 246.706046 
L 572.150585 247.676925 
L 576.318666 248.386583 
L 580.834086 248.928248 
L 586.044186 249.322082 
L 592.643647 249.586458 
L 602.542837 249.737895 
L 624.772599 249.795459 
L 672.358182 249.803719 
L 672.358182 249.803719 
" clip-path="url(#p47f11a21a7)" style="fill: none; stroke-dasharray: 5.55,2.4; stroke-dashoffset: 0; stroke: #9467bd; stroke-width: 1.5"/>
   </g>
   <g id="line2d_16">
    <path d="M 151.521818 249.806455 
L 450.928918 249.695655 
L 463.259488 249.436047 
L 471.595649 249.047956 
L 477.847769 248.54618 
L 483.05787 247.909179 
L 487.39962 247.16031 
L 491.22036 246.281055 
L 494.69376 245.253048 
L 497.819821 244.098857 
L 500.772211 242.771479 
L 503.550931 241.278442 
L 506.155981 239.636882 
L 508.761031 237.738555 
L 511.366081 235.56644 
L 513.971132 233.112242 
L 516.749852 230.189116 
L 519.875912 226.5596 
L 523.696652 221.757601 
L 531.164463 212.27653 
L 533.769513 209.377999 
L 535.853553 207.369241 
L 537.763923 205.831068 
L 539.500623 204.721144 
L 541.063653 203.977926 
L 542.626683 203.489339 
L 544.016044 203.273769 
L 545.405404 203.264512 
L 546.794764 203.458363 
L 548.357794 203.911049 
L 549.920824 204.598948 
L 551.657524 205.617823 
L 553.567894 207.015251 
L 555.651934 208.82245 
L 558.083314 211.229263 
L 561.209375 214.656336 
L 566.766815 221.157758 
L 571.976915 227.12305 
L 575.623986 230.967355 
L 578.923716 234.117568 
L 581.876106 236.640554 
L 584.828496 238.874514 
L 587.780886 240.822818 
L 590.733277 242.498193 
L 593.685667 243.919933 
L 596.811727 245.174901 
L 600.111457 246.253038 
L 603.584857 247.153347 
L 607.405598 247.913068 
L 611.747348 248.542885 
L 616.783778 249.039383 
L 622.862229 249.40622 
L 630.851049 249.652258 
L 643.00795 249.780708 
L 672.358182 249.804804 
L 672.358182 249.804804 
" clip-path="url(#p47f11a21a7)" style="fill: none; stroke-dasharray: 5.55,2.4; stroke-dashoffset: 0; stroke: #8c564b; stroke-width: 1.5"/>
   </g>
   <g id="line2d_17">
    <path d="M 151.521818 249.806455 
L 493.13073 249.698015 
L 500.772211 249.462727 
L 505.634971 249.106277 
L 509.282041 248.628749 
L 512.234431 248.030177 
L 514.839482 247.275476 
L 517.097192 246.391384 
L 519.181232 245.333398 
L 521.091602 244.113203 
L 522.828302 242.75664 
L 524.565002 241.126425 
L 526.301702 239.184068 
L 528.038402 236.890862 
L 529.775103 234.209557 
L 531.511803 231.106347 
L 533.248503 227.553046 
L 535.158873 223.100587 
L 537.069243 218.066105 
L 539.153283 211.915661 
L 541.410993 204.514237 
L 543.842374 195.771305 
L 546.794764 184.279208 
L 550.962844 167.022427 
L 558.256984 136.728294 
L 561.556715 124.053613 
L 564.335435 114.213094 
L 566.940485 105.781555 
L 569.371865 98.645619 
L 571.629575 92.660984 
L 573.887285 87.283387 
L 576.144996 82.489572 
L 578.229036 78.554823 
L 580.313076 75.059939 
L 582.397116 71.97215 
L 584.481156 69.257423 
L 586.565196 66.881593 
L 588.822906 64.651477 
L 591.080617 62.739249 
L 593.338327 61.106814 
L 595.769707 59.621467 
L 598.374757 58.29978 
L 601.153477 57.149785 
L 604.105867 56.171605 
L 607.405598 55.319156 
L 611.052668 54.610011 
L 615.220748 54.02677 
L 620.257178 53.554427 
L 626.509299 53.202734 
L 634.845459 52.969364 
L 648.04438 52.849521 
L 672.358182 52.836539 
L 672.358182 52.836539 
" clip-path="url(#p47f11a21a7)" style="fill: none; stroke: #e377c2; stroke-width: 1.5; stroke-linecap: square"/>
   </g>
   <g id="patch_3">
    <path d="M 125.48 259.702 
L 125.48 42 
" style="fill: none; stroke: #000000; stroke-width: 0.8; stroke-linejoin: miter; stroke-linecap: square"/>
   </g>
   <g id="patch_4">
    <path d="M 698.4 259.702 
L 698.4 42 
" style="fill: none; stroke: #000000; stroke-width: 0.8; stroke-linejoin: miter; stroke-linecap: square"/>
   </g>
   <g id="patch_5">
    <path d="M 125.48 259.702 
L 698.4 259.702 
" style="fill: none; stroke: #000000; stroke-width: 0.8; stroke-linejoin: miter; stroke-linecap: square"/>
   </g>
   <g id="patch_6">
    <path d="M 125.48 42 
L 698.4 42 
" style="fill: none; stroke: #000000; stroke-width: 0.8; stroke-linejoin: miter; stroke-linecap: square"/>
   </g>
   <g id="text_6">
    <!-- $l=30\,m,\,\omega=2\pi\times8.40701933547913\,\mathrm{GHz},\,\kappa_filter=2\pi\times130.0\,\mathrm{MHz},\,\kappa_{eff}=19.231$ -->
    <g transform="translate(88.26 36)scale(0.16 -0.16)">
     <defs>
      <path id="DejaVuSans-Oblique-6c" d="M 1172 4863 
L 1747 4863 
L 800 0 
L 225 0 
L 1172 4863 
z
" transform="scale(0.015625)"/>
      <path id="DejaVuSans-3d" d="M 678 2906 
L 4684 2906 
L 4684 2381 
L 678 2381 
L 678 2906 
z
M 678 1631 
L 4684 1631 
L 4684 1100 
L 678 1100 
L 678 1631 
z
" transform="scale(0.015625)"/>
      <path id="DejaVuSans-33" d="M 2597 2516 
Q 3050 2419 3304 2112 
Q 3559 1806 3559 1356 
Q 3559 666 3084 287 
Q 2609 -91 1734 -91 
Q 1441 -91 1130 -33 
Q 819 25 488 141 
L 488 750 
Q 750 597 1062 519 
Q 1375 441 1716 441 
Q 2309 441 2620 675 
Q 2931 909 2931 1356 
Q 2931 1769 2642 2001 
Q 2353 2234 1838 2234 
L 1294 2234 
L 1294 2753 
L 1863 2753 
Q 2328 2753 2575 2939 
Q 2822 3125 2822 3475 
Q 2822 3834 2567 4026 
Q 2313 4219 1838 4219 
Q 1578 4219 1281 4162 
Q 984 4106 628 3988 
L 628 4550 
Q 988 4650 1302 4700 
Q 1616 4750 1894 4750 
Q 2613 4750 3031 4423 
Q 3450 4097 3450 3541 
Q 3450 3153 3228 2886 
Q 3006 2619 2597 2516 
z
" transform="scale(0.015625)"/>
      <path id="DejaVuSans-Oblique-6d" d="M 5747 2113 
L 5338 0 
L 4763 0 
L 5166 2094 
Q 5191 2228 5203 2325 
Q 5216 2422 5216 2491 
Q 5216 2772 5059 2928 
Q 4903 3084 4622 3084 
Q 4203 3084 3875 2770 
Q 3547 2456 3450 1953 
L 3066 0 
L 2491 0 
L 2900 2094 
Q 2925 2209 2937 2307 
Q 2950 2406 2950 2484 
Q 2950 2769 2794 2926 
Q 2638 3084 2363 3084 
Q 1938 3084 1609 2770 
Q 1281 2456 1184 1953 
L 800 0 
L 225 0 
L 909 3500 
L 1484 3500 
L 1375 2956 
Q 1609 3263 1923 3423 
Q 2238 3584 2597 3584 
Q 2978 3584 3223 3384 
Q 3469 3184 3519 2828 
Q 3781 3197 4126 3390 
Q 4472 3584 4856 3584 
Q 5306 3584 5551 3325 
Q 5797 3066 5797 2591 
Q 5797 2488 5784 2364 
Q 5772 2241 5747 2113 
z
" transform="scale(0.015625)"/>
      <path id="DejaVuSans-2c" d="M 750 794 
L 1409 794 
L 1409 256 
L 897 -744 
L 494 -744 
L 750 256 
L 750 794 
z
" transform="scale(0.015625)"/>
      <path id="DejaVuSans-Oblique-3c9" d="M 1369 -91 
Q 72 -91 434 1766 
Q 575 2500 1256 3500 
L 1875 3500 
Q 1231 2500 1088 1750 
Q 819 397 1519 397 
Q 2166 397 2478 2078 
L 3009 2078 
Q 2669 388 3316 397 
Q 4013 403 4275 1750 
Q 4419 2500 4169 3500 
L 4788 3500 
Q 5075 2500 4934 1766 
Q 4578 -94 3278 -91 
Q 2428 -88 2503 844 
Q 2194 -91 1369 -91 
z
" transform="scale(0.015625)"/>
      <path id="DejaVuSans-Oblique-3c0" d="M 584 3500 
L 3938 3500 
L 3825 2925 
L 3384 2925 
L 2966 775 
Q 2922 550 2981 450 
Q 3038 353 3209 353 
Q 3256 353 3325 363 
Q 3397 369 3419 372 
L 3338 -44 
Q 3222 -84 3103 -103 
Q 2981 -122 2866 -122 
Q 2491 -122 2388 81 
Q 2284 288 2391 838 
L 2797 2925 
L 1506 2925 
L 938 0 
L 350 0 
L 919 2925 
L 472 2925 
L 584 3500 
z
" transform="scale(0.015625)"/>
      <path id="DejaVuSans-d7" d="M 4488 3438 
L 3059 2003 
L 4488 575 
L 4116 197 
L 2681 1631 
L 1247 197 
L 878 575 
L 2303 2003 
L 878 3438 
L 1247 3816 
L 2681 2381 
L 4116 3816 
L 4488 3438 
z
" transform="scale(0.015625)"/>
      <path id="DejaVuSans-38" d="M 2034 2216 
Q 1584 2216 1326 1975 
Q 1069 1734 1069 1313 
Q 1069 891 1326 650 
Q 1584 409 2034 409 
Q 2484 409 2743 651 
Q 3003 894 3003 1313 
Q 3003 1734 2745 1975 
Q 2488 2216 2034 2216 
z
M 1403 2484 
Q 997 2584 770 2862 
Q 544 3141 544 3541 
Q 544 4100 942 4425 
Q 1341 4750 2034 4750 
Q 2731 4750 3128 4425 
Q 3525 4100 3525 3541 
Q 3525 3141 3298 2862 
Q 3072 2584 2669 2484 
Q 3125 2378 3379 2068 
Q 3634 1759 3634 1313 
Q 3634 634 3220 271 
Q 2806 -91 2034 -91 
Q 1263 -91 848 271 
Q 434 634 434 1313 
Q 434 1759 690 2068 
Q 947 2378 1403 2484 
z
M 1172 3481 
Q 1172 3119 1398 2916 
Q 1625 2713 2034 2713 
Q 2441 2713 2670 2916 
Q 2900 3119 2900 3481 
Q 2900 3844 2670 4047 
Q 2441 4250 2034 4250 
Q 1625 4250 1398 4047 
Q 1172 3844 1172 3481 
z
" transform="scale(0.015625)"/>
      <path id="DejaVuSans-34" d="M 2419 4116 
L 825 1625 
L 2419 1625 
L 2419 4116 
z
M 2253 4666 
L 3047 4666 
L 3047 1625 
L 3713 1625 
L 3713 1100 
L 3047 1100 
L 3047 0 
L 2419 0 
L 2419 1100 
L 313 1100 
L 313 1709 
L 2253 4666 
z
" transform="scale(0.015625)"/>
      <path id="DejaVuSans-39" d="M 703 97 
L 703 672 
Q 941 559 1184 500 
Q 1428 441 1663 441 
Q 2288 441 2617 861 
Q 2947 1281 2994 2138 
Q 2813 1869 2534 1725 
Q 2256 1581 1919 1581 
Q 1219 1581 811 2004 
Q 403 2428 403 3163 
Q 403 3881 828 4315 
Q 1253 4750 1959 4750 
Q 2769 4750 3195 4129 
Q 3622 3509 3622 2328 
Q 3622 1225 3098 567 
Q 2575 -91 1691 -91 
Q 1453 -91 1209 -44 
Q 966 3 703 97 
z
M 1959 2075 
Q 2384 2075 2632 2365 
Q 2881 2656 2881 3163 
Q 2881 3666 2632 3958 
Q 2384 4250 1959 4250 
Q 1534 4250 1286 3958 
Q 1038 3666 1038 3163 
Q 1038 2656 1286 2365 
Q 1534 2075 1959 2075 
z
" transform="scale(0.015625)"/>
      <path id="DejaVuSans-47" d="M 3809 666 
L 3809 1919 
L 2778 1919 
L 2778 2438 
L 4434 2438 
L 4434 434 
Q 4069 175 3628 42 
Q 3188 -91 2688 -91 
Q 1594 -91 976 548 
Q 359 1188 359 2328 
Q 359 3472 976 4111 
Q 1594 4750 2688 4750 
Q 3144 4750 3555 4637 
Q 3966 4525 4313 4306 
L 4313 3634 
Q 3963 3931 3569 4081 
Q 3175 4231 2741 4231 
Q 1884 4231 1454 3753 
Q 1025 3275 1025 2328 
Q 1025 1384 1454 906 
Q 1884 428 2741 428 
Q 3075 428 3337 486 
Q 3600 544 3809 666 
z
" transform="scale(0.015625)"/>
      <path id="DejaVuSans-48" d="M 628 4666 
L 1259 4666 
L 1259 2753 
L 3553 2753 
L 3553 4666 
L 4184 4666 
L 4184 0 
L 3553 0 
L 3553 2222 
L 1259 2222 
L 1259 0 
L 628 0 
L 628 4666 
z
" transform="scale(0.015625)"/>
      <path id="DejaVuSans-7a" d="M 353 3500 
L 3084 3500 
L 3084 2975 
L 922 459 
L 3084 459 
L 3084 0 
L 275 0 
L 275 525 
L 2438 3041 
L 353 3041 
L 353 3500 
z
" transform="scale(0.015625)"/>
      <path id="DejaVuSans-Oblique-3ba" d="M 938 3500 
L 1531 3500 
L 1247 2047 
L 3041 3500 
L 3741 3500 
L 2106 2181 
L 3275 0 
L 2572 0 
L 1628 1806 
L 1122 1403 
L 850 0 
L 256 0 
L 938 3500 
z
" transform="scale(0.015625)"/>
      <path id="DejaVuSans-Oblique-66" d="M 3059 4863 
L 2969 4384 
L 2419 4384 
Q 2106 4384 1964 4261 
Q 1822 4138 1753 3809 
L 1691 3500 
L 2638 3500 
L 2553 3053 
L 1606 3053 
L 1013 0 
L 434 0 
L 1031 3053 
L 481 3053 
L 563 3500 
L 1113 3500 
L 1159 3744 
Q 1278 4363 1576 4613 
Q 1875 4863 2516 4863 
L 3059 4863 
z
" transform="scale(0.015625)"/>
      <path id="DejaVuSans-Oblique-69" d="M 1172 4863 
L 1747 4863 
L 1606 4134 
L 1031 4134 
L 1172 4863 
z
M 909 3500 
L 1484 3500 
L 800 0 
L 225 0 
L 909 3500 
z
" transform="scale(0.015625)"/>
      <path id="DejaVuSans-Oblique-74" d="M 2706 3500 
L 2619 3053 
L 1472 3053 
L 1100 1153 
Q 1081 1047 1072 975 
Q 1063 903 1063 863 
Q 1063 663 1183 572 
Q 1303 481 1569 481 
L 2150 481 
L 2053 0 
L 1503 0 
Q 991 0 739 200 
Q 488 400 488 806 
Q 488 878 497 964 
Q 506 1050 525 1153 
L 897 3053 
L 409 3053 
L 500 3500 
L 978 3500 
L 1172 4494 
L 1747 4494 
L 1556 3500 
L 2706 3500 
z
" transform="scale(0.015625)"/>
      <path id="DejaVuSans-Oblique-65" d="M 3078 2063 
Q 3088 2113 3092 2166 
Q 3097 2219 3097 2272 
Q 3097 2653 2873 2875 
Q 2650 3097 2266 3097 
Q 1838 3097 1509 2826 
Q 1181 2556 1013 2059 
L 3078 2063 
z
M 3578 1613 
L 903 1613 
Q 884 1494 878 1425 
Q 872 1356 872 1306 
Q 872 872 1139 634 
Q 1406 397 1894 397 
Q 2269 397 2603 481 
Q 2938 566 3225 728 
L 3116 159 
Q 2806 34 2476 -28 
Q 2147 -91 1806 -91 
Q 1078 -91 686 257 
Q 294 606 294 1247 
Q 294 1794 489 2264 
Q 684 2734 1063 3103 
Q 1306 3334 1642 3459 
Q 1978 3584 2356 3584 
Q 2950 3584 3301 3228 
Q 3653 2872 3653 2272 
Q 3653 2128 3634 1964 
Q 3616 1800 3578 1613 
z
" transform="scale(0.015625)"/>
      <path id="DejaVuSans-Oblique-72" d="M 2853 2969 
Q 2766 3016 2653 3041 
Q 2541 3066 2413 3066 
Q 1953 3066 1609 2717 
Q 1266 2369 1153 1784 
L 800 0 
L 225 0 
L 909 3500 
L 1484 3500 
L 1375 2956 
Q 1603 3259 1920 3421 
Q 2238 3584 2597 3584 
Q 2691 3584 2781 3573 
Q 2872 3563 2963 3538 
L 2853 2969 
z
" transform="scale(0.015625)"/>
      <path id="DejaVuSans-4d" d="M 628 4666 
L 1569 4666 
L 2759 1491 
L 3956 4666 
L 4897 4666 
L 4897 0 
L 4281 0 
L 4281 4097 
L 3078 897 
L 2444 897 
L 1241 4097 
L 1241 0 
L 628 0 
L 628 4666 
z
" transform="scale(0.015625)"/>
     </defs>
     <use xlink:href="#DejaVuSans-Oblique-6c" transform="translate(0 0.015625)"/>
     <use xlink:href="#DejaVuSans-3d" transform="translate(47.265625 0.015625)"/>
     <use xlink:href="#DejaVuSans-33" transform="translate(150.537109 0.015625)"/>
     <use xlink:href="#DejaVuSans-30" transform="translate(214.160156 0.015625)"/>
     <use xlink:href="#DejaVuSans-Oblique-6d" transform="translate(294.018879 0.015625)"/>
     <use xlink:href="#DejaVuSans-2c" transform="translate(391.430989 0.015625)"/>
     <use xlink:href="#DejaVuSans-Oblique-3c9" transform="translate(458.936196 0.015625)"/>
     <use xlink:href="#DejaVuSans-3d" transform="translate(562.158853 0.015625)"/>
     <use xlink:href="#DejaVuSans-32" transform="translate(665.430337 0.015625)"/>
     <use xlink:href="#DejaVuSans-Oblique-3c0" transform="translate(729.053384 0.015625)"/>
     <use xlink:href="#DejaVuSans-d7" transform="translate(808.740884 0.015625)"/>
     <use xlink:href="#DejaVuSans-38" transform="translate(912.012368 0.015625)"/>
     <use xlink:href="#DejaVuSans-2e" transform="translate(975.635415 0.015625)"/>
     <use xlink:href="#DejaVuSans-34" transform="translate(1007.422524 0.015625)"/>
     <use xlink:href="#DejaVuSans-30" transform="translate(1071.045571 0.015625)"/>
     <use xlink:href="#DejaVuSans-37" transform="translate(1134.668618 0.015625)"/>
     <use xlink:href="#DejaVuSans-30" transform="translate(1198.291665 0.015625)"/>
     <use xlink:href="#DejaVuSans-31" transform="translate(1261.914712 0.015625)"/>
     <use xlink:href="#DejaVuSans-39" transform="translate(1325.537759 0.015625)"/>
     <use xlink:href="#DejaVuSans-33" transform="translate(1389.160806 0.015625)"/>
     <use xlink:href="#DejaVuSans-33" transform="translate(1452.783853 0.015625)"/>
     <use xlink:href="#DejaVuSans-35" transform="translate(1516.406899 0.015625)"/>
     <use xlink:href="#DejaVuSans-34" transform="translate(1580.029946 0.015625)"/>
     <use xlink:href="#DejaVuSans-37" transform="translate(1643.652993 0.015625)"/>
     <use xlink:href="#DejaVuSans-39" transform="translate(1707.27604 0.015625)"/>
     <use xlink:href="#DejaVuSans-31" transform="translate(1770.899087 0.015625)"/>
     <use xlink:href="#DejaVuSans-33" transform="translate(1834.522134 0.015625)"/>
     <use xlink:href="#DejaVuSans-47" transform="translate(1914.380857 0.015625)"/>
     <use xlink:href="#DejaVuSans-48" transform="translate(1991.871091 0.015625)"/>
     <use xlink:href="#DejaVuSans-7a" transform="translate(2067.066404 0.015625)"/>
     <use xlink:href="#DejaVuSans-2c" transform="translate(2119.556638 0.015625)"/>
     <use xlink:href="#DejaVuSans-Oblique-3ba" transform="translate(2187.061846 0.015625)"/>
     <use xlink:href="#DejaVuSans-Oblique-66" transform="translate(2245.997393 -16.390625)scale(0.7)"/>
     <use xlink:href="#DejaVuSans-Oblique-69" transform="translate(2273.375322 0.015625)"/>
     <use xlink:href="#DejaVuSans-Oblique-6c" transform="translate(2301.158525 0.015625)"/>
     <use xlink:href="#DejaVuSans-Oblique-74" transform="translate(2328.941729 0.015625)"/>
     <use xlink:href="#DejaVuSans-Oblique-65" transform="translate(2368.150713 0.015625)"/>
     <use xlink:href="#DejaVuSans-Oblique-72" transform="translate(2429.67415 0.015625)"/>
     <use xlink:href="#DejaVuSans-3d" transform="translate(2490.269854 0.015625)"/>
     <use xlink:href="#DejaVuSans-32" transform="translate(2593.541338 0.015625)"/>
     <use xlink:href="#DejaVuSans-Oblique-3c0" transform="translate(2657.164385 0.015625)"/>
     <use xlink:href="#DejaVuSans-d7" transform="translate(2736.851885 0.015625)"/>
     <use xlink:href="#DejaVuSans-31" transform="translate(2840.123369 0.015625)"/>
     <use xlink:href="#DejaVuSans-33" transform="translate(2903.746416 0.015625)"/>
     <use xlink:href="#DejaVuSans-30" transform="translate(2967.369463 0.015625)"/>
     <use xlink:href="#DejaVuSans-2e" transform="translate(3030.99251 0.015625)"/>
     <use xlink:href="#DejaVuSans-30" transform="translate(3062.779619 0.015625)"/>
     <use xlink:href="#DejaVuSans-4d" transform="translate(3142.638342 0.015625)"/>
     <use xlink:href="#DejaVuSans-48" transform="translate(3228.917639 0.015625)"/>
     <use xlink:href="#DejaVuSans-7a" transform="translate(3304.112952 0.015625)"/>
     <use xlink:href="#DejaVuSans-2c" transform="translate(3356.603186 0.015625)"/>
     <use xlink:href="#DejaVuSans-Oblique-3ba" transform="translate(3424.108394 0.015625)"/>
     <use xlink:href="#DejaVuSans-Oblique-65" transform="translate(3483.04394 -16.390625)scale(0.7)"/>
     <use xlink:href="#DejaVuSans-Oblique-66" transform="translate(3526.110347 -16.390625)scale(0.7)"/>
     <use xlink:href="#DejaVuSans-Oblique-66" transform="translate(3550.753901 -16.390625)scale(0.7)"/>
     <use xlink:href="#DejaVuSans-3d" transform="translate(3597.614253 0.015625)"/>
     <use xlink:href="#DejaVuSans-31" transform="translate(3700.885737 0.015625)"/>
     <use xlink:href="#DejaVuSans-39" transform="translate(3764.508784 0.015625)"/>
     <use xlink:href="#DejaVuSans-2e" transform="translate(3828.131831 0.015625)"/>
     <use xlink:href="#DejaVuSans-32" transform="translate(3854.41894 0.015625)"/>
     <use xlink:href="#DejaVuSans-33" transform="translate(3918.041987 0.015625)"/>
     <use xlink:href="#DejaVuSans-31" transform="translate(3981.665034 0.015625)"/>
    </g>
   </g>
   <g id="legend_1">
    <g id="patch_7">
     <path d="M 342.865 235.4485 
L 481.015 235.4485 
Q 484.215 235.4485 484.215 232.2485 
L 484.215 69.4535 
Q 484.215 66.2535 481.015 66.2535 
L 342.865 66.2535 
Q 339.665 66.2535 339.665 69.4535 
L 339.665 232.2485 
Q 339.665 235.4485 342.865 235.4485 
z
" style="fill: #ffffff; opacity: 0.8; stroke: #cccccc; stroke-linejoin: miter"/>
    </g>
    <g id="line2d_18">
     <path d="M 346.065 79.211 
L 362.065 79.211 
L 378.065 79.211 
" style="fill: none; stroke: #1f77b4; stroke-width: 1.5; stroke-linecap: square"/>
    </g>
    <g id="text_7">
     <!-- qubit 1 -->
     <g transform="translate(390.865 84.811)scale(0.16 -0.16)">
      <defs>
       <path id="DejaVuSans-71" d="M 947 1747 
Q 947 1113 1208 752 
Q 1469 391 1925 391 
Q 2381 391 2643 752 
Q 2906 1113 2906 1747 
Q 2906 2381 2643 2742 
Q 2381 3103 1925 3103 
Q 1469 3103 1208 2742 
Q 947 2381 947 1747 
z
M 2906 525 
Q 2725 213 2448 61 
Q 2172 -91 1784 -91 
Q 1150 -91 751 415 
Q 353 922 353 1747 
Q 353 2572 751 3078 
Q 1150 3584 1784 3584 
Q 2172 3584 2448 3432 
Q 2725 3281 2906 2969 
L 2906 3500 
L 3481 3500 
L 3481 -1331 
L 2906 -1331 
L 2906 525 
z
" transform="scale(0.015625)"/>
       <path id="DejaVuSans-75" d="M 544 1381 
L 544 3500 
L 1119 3500 
L 1119 1403 
Q 1119 906 1312 657 
Q 1506 409 1894 409 
Q 2359 409 2629 706 
Q 2900 1003 2900 1516 
L 2900 3500 
L 3475 3500 
L 3475 0 
L 2900 0 
L 2900 538 
Q 2691 219 2414 64 
Q 2138 -91 1772 -91 
Q 1169 -91 856 284 
Q 544 659 544 1381 
z
M 1991 3584 
L 1991 3584 
z
" transform="scale(0.015625)"/>
       <path id="DejaVuSans-62" d="M 3116 1747 
Q 3116 2381 2855 2742 
Q 2594 3103 2138 3103 
Q 1681 3103 1420 2742 
Q 1159 2381 1159 1747 
Q 1159 1113 1420 752 
Q 1681 391 2138 391 
Q 2594 391 2855 752 
Q 3116 1113 3116 1747 
z
M 1159 2969 
Q 1341 3281 1617 3432 
Q 1894 3584 2278 3584 
Q 2916 3584 3314 3078 
Q 3713 2572 3713 1747 
Q 3713 922 3314 415 
Q 2916 -91 2278 -91 
Q 1894 -91 1617 61 
Q 1341 213 1159 525 
L 1159 0 
L 581 0 
L 581 4863 
L 1159 4863 
L 1159 2969 
z
" transform="scale(0.015625)"/>
       <path id="DejaVuSans-69" d="M 603 3500 
L 1178 3500 
L 1178 0 
L 603 0 
L 603 3500 
z
M 603 4863 
L 1178 4863 
L 1178 4134 
L 603 4134 
L 603 4863 
z
" transform="scale(0.015625)"/>
       <path id="DejaVuSans-74" d="M 1172 4494 
L 1172 3500 
L 2356 3500 
L 2356 3053 
L 1172 3053 
L 1172 1153 
Q 1172 725 1289 603 
Q 1406 481 1766 481 
L 2356 481 
L 2356 0 
L 1766 0 
Q 1100 0 847 248 
Q 594 497 594 1153 
L 594 3053 
L 172 3053 
L 172 3500 
L 594 3500 
L 594 4494 
L 1172 4494 
z
" transform="scale(0.015625)"/>
       <path id="DejaVuSans-20" transform="scale(0.015625)"/>
      </defs>
      <use xlink:href="#DejaVuSans-71"/>
      <use xlink:href="#DejaVuSans-75" x="63.476562"/>
      <use xlink:href="#DejaVuSans-62" x="126.855469"/>
      <use xlink:href="#DejaVuSans-69" x="190.332031"/>
      <use xlink:href="#DejaVuSans-74" x="218.115234"/>
      <use xlink:href="#DejaVuSans-20" x="257.324219"/>
      <use xlink:href="#DejaVuSans-31" x="289.111328"/>
     </g>
    </g>
    <g id="line2d_19">
     <path d="M 346.065 102.696 
L 362.065 102.696 
L 378.065 102.696 
" style="fill: none; stroke-dasharray: 5.55,2.4; stroke-dashoffset: 0; stroke: #ff7f0e; stroke-width: 1.5"/>
    </g>
    <g id="text_8">
     <!-- cavity 1 -->
     <g transform="translate(390.865 108.296)scale(0.16 -0.16)">
      <defs>
       <path id="DejaVuSans-63" d="M 3122 3366 
L 3122 2828 
Q 2878 2963 2633 3030 
Q 2388 3097 2138 3097 
Q 1578 3097 1268 2742 
Q 959 2388 959 1747 
Q 959 1106 1268 751 
Q 1578 397 2138 397 
Q 2388 397 2633 464 
Q 2878 531 3122 666 
L 3122 134 
Q 2881 22 2623 -34 
Q 2366 -91 2075 -91 
Q 1284 -91 818 406 
Q 353 903 353 1747 
Q 353 2603 823 3093 
Q 1294 3584 2113 3584 
Q 2378 3584 2631 3529 
Q 2884 3475 3122 3366 
z
" transform="scale(0.015625)"/>
       <path id="DejaVuSans-61" d="M 2194 1759 
Q 1497 1759 1228 1600 
Q 959 1441 959 1056 
Q 959 750 1161 570 
Q 1363 391 1709 391 
Q 2188 391 2477 730 
Q 2766 1069 2766 1631 
L 2766 1759 
L 2194 1759 
z
M 3341 1997 
L 3341 0 
L 2766 0 
L 2766 531 
Q 2569 213 2275 61 
Q 1981 -91 1556 -91 
Q 1019 -91 701 211 
Q 384 513 384 1019 
Q 384 1609 779 1909 
Q 1175 2209 1959 2209 
L 2766 2209 
L 2766 2266 
Q 2766 2663 2505 2880 
Q 2244 3097 1772 3097 
Q 1472 3097 1187 3025 
Q 903 2953 641 2809 
L 641 3341 
Q 956 3463 1253 3523 
Q 1550 3584 1831 3584 
Q 2591 3584 2966 3190 
Q 3341 2797 3341 1997 
z
" transform="scale(0.015625)"/>
       <path id="DejaVuSans-76" d="M 191 3500 
L 800 3500 
L 1894 563 
L 2988 3500 
L 3597 3500 
L 2284 0 
L 1503 0 
L 191 3500 
z
" transform="scale(0.015625)"/>
       <path id="DejaVuSans-79" d="M 2059 -325 
Q 1816 -950 1584 -1140 
Q 1353 -1331 966 -1331 
L 506 -1331 
L 506 -850 
L 844 -850 
Q 1081 -850 1212 -737 
Q 1344 -625 1503 -206 
L 1606 56 
L 191 3500 
L 800 3500 
L 1894 763 
L 2988 3500 
L 3597 3500 
L 2059 -325 
z
" transform="scale(0.015625)"/>
      </defs>
      <use xlink:href="#DejaVuSans-63"/>
      <use xlink:href="#DejaVuSans-61" x="54.980469"/>
      <use xlink:href="#DejaVuSans-76" x="116.259766"/>
      <use xlink:href="#DejaVuSans-69" x="175.439453"/>
      <use xlink:href="#DejaVuSans-74" x="203.222656"/>
      <use xlink:href="#DejaVuSans-79" x="242.431641"/>
      <use xlink:href="#DejaVuSans-20" x="301.611328"/>
      <use xlink:href="#DejaVuSans-31" x="333.398438"/>
     </g>
    </g>
    <g id="line2d_20">
     <path d="M 346.065 126.181 
L 362.065 126.181 
L 378.065 126.181 
" style="fill: none; stroke-dasharray: 5.55,2.4; stroke-dashoffset: 0; stroke: #2ca02c; stroke-width: 1.5"/>
    </g>
    <g id="text_9">
     <!-- Purcell 1 -->
     <g transform="translate(390.865 131.781)scale(0.16 -0.16)">
      <defs>
       <path id="DejaVuSans-50" d="M 1259 4147 
L 1259 2394 
L 2053 2394 
Q 2494 2394 2734 2622 
Q 2975 2850 2975 3272 
Q 2975 3691 2734 3919 
Q 2494 4147 2053 4147 
L 1259 4147 
z
M 628 4666 
L 2053 4666 
Q 2838 4666 3239 4311 
Q 3641 3956 3641 3272 
Q 3641 2581 3239 2228 
Q 2838 1875 2053 1875 
L 1259 1875 
L 1259 0 
L 628 0 
L 628 4666 
z
" transform="scale(0.015625)"/>
       <path id="DejaVuSans-72" d="M 2631 2963 
Q 2534 3019 2420 3045 
Q 2306 3072 2169 3072 
Q 1681 3072 1420 2755 
Q 1159 2438 1159 1844 
L 1159 0 
L 581 0 
L 581 3500 
L 1159 3500 
L 1159 2956 
Q 1341 3275 1631 3429 
Q 1922 3584 2338 3584 
Q 2397 3584 2469 3576 
Q 2541 3569 2628 3553 
L 2631 2963 
z
" transform="scale(0.015625)"/>
       <path id="DejaVuSans-65" d="M 3597 1894 
L 3597 1613 
L 953 1613 
Q 991 1019 1311 708 
Q 1631 397 2203 397 
Q 2534 397 2845 478 
Q 3156 559 3463 722 
L 3463 178 
Q 3153 47 2828 -22 
Q 2503 -91 2169 -91 
Q 1331 -91 842 396 
Q 353 884 353 1716 
Q 353 2575 817 3079 
Q 1281 3584 2069 3584 
Q 2775 3584 3186 3129 
Q 3597 2675 3597 1894 
z
M 3022 2063 
Q 3016 2534 2758 2815 
Q 2500 3097 2075 3097 
Q 1594 3097 1305 2825 
Q 1016 2553 972 2059 
L 3022 2063 
z
" transform="scale(0.015625)"/>
       <path id="DejaVuSans-6c" d="M 603 4863 
L 1178 4863 
L 1178 0 
L 603 0 
L 603 4863 
z
" transform="scale(0.015625)"/>
      </defs>
      <use xlink:href="#DejaVuSans-50"/>
      <use xlink:href="#DejaVuSans-75" x="58.552734"/>
      <use xlink:href="#DejaVuSans-72" x="121.931641"/>
      <use xlink:href="#DejaVuSans-63" x="160.794922"/>
      <use xlink:href="#DejaVuSans-65" x="215.775391"/>
      <use xlink:href="#DejaVuSans-6c" x="277.298828"/>
      <use xlink:href="#DejaVuSans-6c" x="305.082031"/>
      <use xlink:href="#DejaVuSans-20" x="332.865234"/>
      <use xlink:href="#DejaVuSans-31" x="364.652344"/>
     </g>
    </g>
    <g id="line2d_21">
     <path d="M 346.065 149.666 
L 362.065 149.666 
L 378.065 149.666 
" style="fill: none; stroke-dasharray: 9.6,2.4,1.5,2.4; stroke-dashoffset: 0; stroke: #d62728; stroke-width: 1.5"/>
    </g>
    <g id="text_10">
     <!-- waveguide -->
     <g transform="translate(390.865 155.266)scale(0.16 -0.16)">
      <defs>
       <path id="DejaVuSans-77" d="M 269 3500 
L 844 3500 
L 1563 769 
L 2278 3500 
L 2956 3500 
L 3675 769 
L 4391 3500 
L 4966 3500 
L 4050 0 
L 3372 0 
L 2619 2869 
L 1863 0 
L 1184 0 
L 269 3500 
z
" transform="scale(0.015625)"/>
       <path id="DejaVuSans-67" d="M 2906 1791 
Q 2906 2416 2648 2759 
Q 2391 3103 1925 3103 
Q 1463 3103 1205 2759 
Q 947 2416 947 1791 
Q 947 1169 1205 825 
Q 1463 481 1925 481 
Q 2391 481 2648 825 
Q 2906 1169 2906 1791 
z
M 3481 434 
Q 3481 -459 3084 -895 
Q 2688 -1331 1869 -1331 
Q 1566 -1331 1297 -1286 
Q 1028 -1241 775 -1147 
L 775 -588 
Q 1028 -725 1275 -790 
Q 1522 -856 1778 -856 
Q 2344 -856 2625 -561 
Q 2906 -266 2906 331 
L 2906 616 
Q 2728 306 2450 153 
Q 2172 0 1784 0 
Q 1141 0 747 490 
Q 353 981 353 1791 
Q 353 2603 747 3093 
Q 1141 3584 1784 3584 
Q 2172 3584 2450 3431 
Q 2728 3278 2906 2969 
L 2906 3500 
L 3481 3500 
L 3481 434 
z
" transform="scale(0.015625)"/>
       <path id="DejaVuSans-64" d="M 2906 2969 
L 2906 4863 
L 3481 4863 
L 3481 0 
L 2906 0 
L 2906 525 
Q 2725 213 2448 61 
Q 2172 -91 1784 -91 
Q 1150 -91 751 415 
Q 353 922 353 1747 
Q 353 2572 751 3078 
Q 1150 3584 1784 3584 
Q 2172 3584 2448 3432 
Q 2725 3281 2906 2969 
z
M 947 1747 
Q 947 1113 1208 752 
Q 1469 391 1925 391 
Q 2381 391 2643 752 
Q 2906 1113 2906 1747 
Q 2906 2381 2643 2742 
Q 2381 3103 1925 3103 
Q 1469 3103 1208 2742 
Q 947 2381 947 1747 
z
" transform="scale(0.015625)"/>
      </defs>
      <use xlink:href="#DejaVuSans-77"/>
      <use xlink:href="#DejaVuSans-61" x="81.787109"/>
      <use xlink:href="#DejaVuSans-76" x="143.066406"/>
      <use xlink:href="#DejaVuSans-65" x="202.246094"/>
      <use xlink:href="#DejaVuSans-67" x="263.769531"/>
      <use xlink:href="#DejaVuSans-75" x="327.246094"/>
      <use xlink:href="#DejaVuSans-69" x="390.625"/>
      <use xlink:href="#DejaVuSans-64" x="418.408203"/>
      <use xlink:href="#DejaVuSans-65" x="481.884766"/>
     </g>
    </g>
    <g id="line2d_22">
     <path d="M 346.065 173.151 
L 362.065 173.151 
L 378.065 173.151 
" style="fill: none; stroke-dasharray: 5.55,2.4; stroke-dashoffset: 0; stroke: #9467bd; stroke-width: 1.5"/>
    </g>
    <g id="text_11">
     <!-- Purcell 2 -->
     <g transform="translate(390.865 178.751)scale(0.16 -0.16)">
      <use xlink:href="#DejaVuSans-50"/>
      <use xlink:href="#DejaVuSans-75" x="58.552734"/>
      <use xlink:href="#DejaVuSans-72" x="121.931641"/>
      <use xlink:href="#DejaVuSans-63" x="160.794922"/>
      <use xlink:href="#DejaVuSans-65" x="215.775391"/>
      <use xlink:href="#DejaVuSans-6c" x="277.298828"/>
      <use xlink:href="#DejaVuSans-6c" x="305.082031"/>
      <use xlink:href="#DejaVuSans-20" x="332.865234"/>
      <use xlink:href="#DejaVuSans-32" x="364.652344"/>
     </g>
    </g>
    <g id="line2d_23">
     <path d="M 346.065 196.636 
L 362.065 196.636 
L 378.065 196.636 
" style="fill: none; stroke-dasharray: 5.55,2.4; stroke-dashoffset: 0; stroke: #8c564b; stroke-width: 1.5"/>
    </g>
    <g id="text_12">
     <!-- cavity 2 -->
     <g transform="translate(390.865 202.236)scale(0.16 -0.16)">
      <use xlink:href="#DejaVuSans-63"/>
      <use xlink:href="#DejaVuSans-61" x="54.980469"/>
      <use xlink:href="#DejaVuSans-76" x="116.259766"/>
      <use xlink:href="#DejaVuSans-69" x="175.439453"/>
      <use xlink:href="#DejaVuSans-74" x="203.222656"/>
      <use xlink:href="#DejaVuSans-79" x="242.431641"/>
      <use xlink:href="#DejaVuSans-20" x="301.611328"/>
      <use xlink:href="#DejaVuSans-32" x="333.398438"/>
     </g>
    </g>
    <g id="line2d_24">
     <path d="M 346.065 220.121 
L 362.065 220.121 
L 378.065 220.121 
" style="fill: none; stroke: #e377c2; stroke-width: 1.5; stroke-linecap: square"/>
    </g>
    <g id="text_13">
     <!-- qubit 2 -->
     <g transform="translate(390.865 225.721)scale(0.16 -0.16)">
      <use xlink:href="#DejaVuSans-71"/>
      <use xlink:href="#DejaVuSans-75" x="63.476562"/>
      <use xlink:href="#DejaVuSans-62" x="126.855469"/>
      <use xlink:href="#DejaVuSans-69" x="190.332031"/>
      <use xlink:href="#DejaVuSans-74" x="218.115234"/>
      <use xlink:href="#DejaVuSans-20" x="257.324219"/>
      <use xlink:href="#DejaVuSans-32" x="289.111328"/>
     </g>
    </g>
   </g>
  </g>
  <g id="axes_2">
   <g id="patch_8">
    <path d="M 125.48 502.504 
L 698.4 502.504 
L 698.4 284.802 
L 125.48 284.802 
z
" style="fill: #ffffff"/>
   </g>
   <g id="matplotlib.axis_3">
    <g id="xtick_6">
     <g id="line2d_25">
      <g>
       <use xlink:href="#md6360e8b0a" x="215.995027" y="502.504" style="stroke: #000000; stroke-width: 0.8"/>
      </g>
     </g>
     <g id="text_14">
      <!-- −100 -->
      <g transform="translate(188.527839 524.700875)scale(0.2 -0.2)">
       <defs>
        <path id="DejaVuSans-2212" d="M 678 2272 
L 4684 2272 
L 4684 1741 
L 678 1741 
L 678 2272 
z
" transform="scale(0.015625)"/>
       </defs>
       <use xlink:href="#DejaVuSans-2212"/>
       <use xlink:href="#DejaVuSans-31" x="83.789062"/>
       <use xlink:href="#DejaVuSans-30" x="147.412109"/>
       <use xlink:href="#DejaVuSans-30" x="211.035156"/>
      </g>
     </g>
    </g>
    <g id="xtick_7">
     <g id="line2d_26">
      <g>
       <use xlink:href="#md6360e8b0a" x="313.967513" y="502.504" style="stroke: #000000; stroke-width: 0.8"/>
      </g>
     </g>
     <g id="text_15">
      <!-- −50 -->
      <g transform="translate(292.862826 524.700875)scale(0.2 -0.2)">
       <use xlink:href="#DejaVuSans-2212"/>
       <use xlink:href="#DejaVuSans-35" x="83.789062"/>
       <use xlink:href="#DejaVuSans-30" x="147.412109"/>
      </g>
     </g>
    </g>
    <g id="xtick_8">
     <g id="line2d_27">
      <g>
       <use xlink:href="#md6360e8b0a" x="411.94" y="502.504" style="stroke: #000000; stroke-width: 0.8"/>
      </g>
     </g>
     <g id="text_16">
      <!-- 0 -->
      <g transform="translate(405.5775 524.700875)scale(0.2 -0.2)">
       <use xlink:href="#DejaVuSans-30"/>
      </g>
     </g>
    </g>
    <g id="xtick_9">
     <g id="line2d_28">
      <g>
       <use xlink:href="#md6360e8b0a" x="509.912487" y="502.504" style="stroke: #000000; stroke-width: 0.8"/>
      </g>
     </g>
     <g id="text_17">
      <!-- 50 -->
      <g transform="translate(497.187487 524.700875)scale(0.2 -0.2)">
       <use xlink:href="#DejaVuSans-35"/>
       <use xlink:href="#DejaVuSans-30" x="63.623047"/>
      </g>
     </g>
    </g>
    <g id="xtick_10">
     <g id="line2d_29">
      <g>
       <use xlink:href="#md6360e8b0a" x="607.884973" y="502.504" style="stroke: #000000; stroke-width: 0.8"/>
      </g>
     </g>
     <g id="text_18">
      <!-- 100 -->
      <g transform="translate(588.797473 524.700875)scale(0.2 -0.2)">
       <use xlink:href="#DejaVuSans-31"/>
       <use xlink:href="#DejaVuSans-30" x="63.623047"/>
       <use xlink:href="#DejaVuSans-30" x="127.246094"/>
      </g>
     </g>
    </g>
    <g id="text_19">
     <!-- $t\kappa_1$ -->
     <g transform="translate(397.34 548.057125)scale(0.2 -0.2)">
      <use xlink:href="#DejaVuSans-Oblique-74" transform="translate(0 0.78125)"/>
      <use xlink:href="#DejaVuSans-Oblique-3ba" transform="translate(39.208984 0.78125)"/>
      <use xlink:href="#DejaVuSans-31" transform="translate(98.144531 -15.625)scale(0.7)"/>
     </g>
    </g>
   </g>
   <g id="matplotlib.axis_4">
    <g id="ytick_6">
     <g id="line2d_30">
      <g>
       <use xlink:href="#mf64cfa6f68" x="125.48" y="492.608625" style="stroke: #000000; stroke-width: 0.8"/>
      </g>
     </g>
     <g id="text_20">
      <!-- 0.0000 -->
      <g transform="translate(48.49875 500.207062)scale(0.2 -0.2)">
       <use xlink:href="#DejaVuSans-30"/>
       <use xlink:href="#DejaVuSans-2e" x="63.623047"/>
       <use xlink:href="#DejaVuSans-30" x="95.410156"/>
       <use xlink:href="#DejaVuSans-30" x="159.033203"/>
       <use xlink:href="#DejaVuSans-30" x="222.65625"/>
       <use xlink:href="#DejaVuSans-30" x="286.279297"/>
      </g>
     </g>
    </g>
    <g id="ytick_7">
     <g id="line2d_31">
      <g>
       <use xlink:href="#mf64cfa6f68" x="125.48" y="447.388233" style="stroke: #000000; stroke-width: 0.8"/>
      </g>
     </g>
     <g id="text_21">
      <!-- 0.0025 -->
      <g transform="translate(48.49875 454.98667)scale(0.2 -0.2)">
       <use xlink:href="#DejaVuSans-30"/>
       <use xlink:href="#DejaVuSans-2e" x="63.623047"/>
       <use xlink:href="#DejaVuSans-30" x="95.410156"/>
       <use xlink:href="#DejaVuSans-30" x="159.033203"/>
       <use xlink:href="#DejaVuSans-32" x="222.65625"/>
       <use xlink:href="#DejaVuSans-35" x="286.279297"/>
      </g>
     </g>
    </g>
    <g id="ytick_8">
     <g id="line2d_32">
      <g>
       <use xlink:href="#mf64cfa6f68" x="125.48" y="402.167841" style="stroke: #000000; stroke-width: 0.8"/>
      </g>
     </g>
     <g id="text_22">
      <!-- 0.0050 -->
      <g transform="translate(48.49875 409.766278)scale(0.2 -0.2)">
       <use xlink:href="#DejaVuSans-30"/>
       <use xlink:href="#DejaVuSans-2e" x="63.623047"/>
       <use xlink:href="#DejaVuSans-30" x="95.410156"/>
       <use xlink:href="#DejaVuSans-30" x="159.033203"/>
       <use xlink:href="#DejaVuSans-35" x="222.65625"/>
       <use xlink:href="#DejaVuSans-30" x="286.279297"/>
      </g>
     </g>
    </g>
    <g id="ytick_9">
     <g id="line2d_33">
      <g>
       <use xlink:href="#mf64cfa6f68" x="125.48" y="356.947449" style="stroke: #000000; stroke-width: 0.8"/>
      </g>
     </g>
     <g id="text_23">
      <!-- 0.0075 -->
      <g transform="translate(48.49875 364.545887)scale(0.2 -0.2)">
       <use xlink:href="#DejaVuSans-30"/>
       <use xlink:href="#DejaVuSans-2e" x="63.623047"/>
       <use xlink:href="#DejaVuSans-30" x="95.410156"/>
       <use xlink:href="#DejaVuSans-30" x="159.033203"/>
       <use xlink:href="#DejaVuSans-37" x="222.65625"/>
       <use xlink:href="#DejaVuSans-35" x="286.279297"/>
      </g>
     </g>
    </g>
    <g id="ytick_10">
     <g id="line2d_34">
      <g>
       <use xlink:href="#mf64cfa6f68" x="125.48" y="311.727057" style="stroke: #000000; stroke-width: 0.8"/>
      </g>
     </g>
     <g id="text_24">
      <!-- 0.0100 -->
      <g transform="translate(48.49875 319.325495)scale(0.2 -0.2)">
       <use xlink:href="#DejaVuSans-30"/>
       <use xlink:href="#DejaVuSans-2e" x="63.623047"/>
       <use xlink:href="#DejaVuSans-30" x="95.410156"/>
       <use xlink:href="#DejaVuSans-31" x="159.033203"/>
       <use xlink:href="#DejaVuSans-30" x="222.65625"/>
       <use xlink:href="#DejaVuSans-30" x="286.279297"/>
      </g>
     </g>
    </g>
    <g id="text_25">
     <!-- $g_i(t)/\kappa_i$ -->
     <g transform="translate(40.29875 425.453)rotate(-90)scale(0.2 -0.2)">
      <defs>
       <path id="DejaVuSans-Oblique-67" d="M 3816 3500 
L 3219 434 
Q 3047 -456 2561 -893 
Q 2075 -1331 1253 -1331 
Q 950 -1331 690 -1286 
Q 431 -1241 206 -1147 
L 313 -588 
Q 525 -725 762 -790 
Q 1000 -856 1269 -856 
Q 1816 -856 2167 -557 
Q 2519 -259 2631 300 
L 2681 563 
Q 2441 288 2122 144 
Q 1803 0 1434 0 
Q 903 0 598 351 
Q 294 703 294 1319 
Q 294 1803 478 2267 
Q 663 2731 997 3091 
Q 1219 3328 1514 3456 
Q 1809 3584 2131 3584 
Q 2484 3584 2746 3420 
Q 3009 3256 3138 2956 
L 3238 3500 
L 3816 3500 
z
M 2950 2216 
Q 2950 2641 2750 2872 
Q 2550 3103 2181 3103 
Q 1953 3103 1747 3012 
Q 1541 2922 1394 2759 
Q 1156 2491 1023 2127 
Q 891 1763 891 1375 
Q 891 944 1092 712 
Q 1294 481 1672 481 
Q 2219 481 2584 976 
Q 2950 1472 2950 2216 
z
" transform="scale(0.015625)"/>
       <path id="DejaVuSans-28" d="M 1984 4856 
Q 1566 4138 1362 3434 
Q 1159 2731 1159 2009 
Q 1159 1288 1364 580 
Q 1569 -128 1984 -844 
L 1484 -844 
Q 1016 -109 783 600 
Q 550 1309 550 2009 
Q 550 2706 781 3412 
Q 1013 4119 1484 4856 
L 1984 4856 
z
" transform="scale(0.015625)"/>
       <path id="DejaVuSans-29" d="M 513 4856 
L 1013 4856 
Q 1481 4119 1714 3412 
Q 1947 2706 1947 2009 
Q 1947 1309 1714 600 
Q 1481 -109 1013 -844 
L 513 -844 
Q 928 -128 1133 580 
Q 1338 1288 1338 2009 
Q 1338 2731 1133 3434 
Q 928 4138 513 4856 
z
" transform="scale(0.015625)"/>
       <path id="DejaVuSans-2f" d="M 1625 4666 
L 2156 4666 
L 531 -594 
L 0 -594 
L 1625 4666 
z
" transform="scale(0.015625)"/>
      </defs>
      <use xlink:href="#DejaVuSans-Oblique-67" transform="translate(0 0.125)"/>
      <use xlink:href="#DejaVuSans-Oblique-69" transform="translate(63.476562 -16.28125)scale(0.7)"/>
      <use xlink:href="#DejaVuSans-28" transform="translate(85.65918 0.125)"/>
      <use xlink:href="#DejaVuSans-Oblique-74" transform="translate(124.672852 0.125)"/>
      <use xlink:href="#DejaVuSans-29" transform="translate(163.881836 0.125)"/>
      <use xlink:href="#DejaVuSans-2f" transform="translate(202.895508 0.125)"/>
      <use xlink:href="#DejaVuSans-Oblique-3ba" transform="translate(236.586914 0.125)"/>
      <use xlink:href="#DejaVuSans-Oblique-69" transform="translate(295.522461 -16.28125)scale(0.7)"/>
     </g>
    </g>
   </g>
   <g id="line2d_35">
    <path d="M 151.521818 489.941712 
L 158.815959 489.096489 
L 165.241749 488.132609 
L 170.972859 487.051951 
L 176.18296 485.844903 
L 180.87205 484.536222 
L 185.2138 483.10018 
L 189.208211 481.555021 
L 193.028951 479.843468 
L 196.676021 477.964233 
L 200.149421 475.919471 
L 203.449152 473.715233 
L 206.575212 471.361835 
L 209.701272 468.719145 
L 212.653662 465.927101 
L 215.606052 462.815493 
L 218.384772 459.564664 
L 221.163493 455.970404 
L 223.942213 452.000556 
L 226.720933 447.621478 
L 229.499653 442.79859 
L 232.278373 437.497207 
L 235.057094 431.683755 
L 237.835814 425.327472 
L 240.614534 418.402738 
L 243.393254 410.892148 
L 246.345644 402.264654 
L 249.471705 392.419816 
L 252.945105 380.692352 
L 256.939515 366.372168 
L 268.575406 324.014834 
L 271.006786 316.269475 
L 273.090826 310.316502 
L 274.827526 305.949674 
L 276.390556 302.551208 
L 277.779916 299.997391 
L 279.169276 297.916922 
L 280.384967 296.506235 
L 281.426987 295.613094 
L 282.469007 295.018918 
L 283.337357 294.755502 
L 284.205707 294.704316 
L 285.074057 294.865633 
L 285.942407 295.238589 
L 286.984427 295.962616 
L 288.026447 296.982944 
L 289.242137 298.537414 
L 290.457827 300.46887 
L 291.847187 303.113187 
L 293.410217 306.605103 
L 295.146917 311.064206 
L 297.057288 316.581015 
L 299.314998 323.778991 
L 302.267388 334.007398 
L 306.609138 349.973008 
L 313.903279 376.780383 
L 317.724019 389.902893 
L 321.023749 400.455751 
L 324.149809 409.710618 
L 327.1022 417.765542 
L 330.05459 425.158097 
L 332.83331 431.528581 
L 335.61203 437.355506 
L 338.39075 442.669533 
L 341.16947 447.50419 
L 343.948191 451.89415 
L 346.726911 455.874007 
L 349.505631 459.477436 
L 352.284351 462.736635 
L 355.236741 465.856316 
L 358.189132 468.655651 
L 361.315192 471.305277 
L 364.441252 473.664878 
L 367.740982 475.874945 
L 371.214382 477.925131 
L 374.861453 479.809361 
L 378.682193 481.525471 
L 382.676603 483.07475 
L 387.018353 484.514626 
L 391.707444 485.826803 
L 396.743874 487.000449 
L 402.301314 488.061412 
L 408.379765 488.993537 
L 415.326565 489.827306 
L 423.141716 490.537806 
L 432.346226 491.145594 
L 443.461107 491.646915 
L 457.354708 492.039405 
L 475.937399 492.326368 
L 503.550931 492.509093 
L 555.999274 492.59488 
L 672.358182 492.608455 
L 672.358182 492.608455 
" clip-path="url(#p3a4fc3b0c4)" style="fill: none; stroke: #1f77b4; stroke-width: 1.5; stroke-linecap: square"/>
   </g>
   <g id="line2d_36">
    <path d="M 151.521818 492.608455 
L 323.455129 492.496627 
L 353.673711 492.258198 
L 372.256402 491.901928 
L 385.802663 491.430199 
L 396.570204 490.839267 
L 405.427375 490.136855 
L 413.068855 489.310509 
L 419.668315 488.377701 
L 425.573096 487.321644 
L 430.956866 486.130817 
L 435.819627 484.826567 
L 440.335047 483.381847 
L 444.503127 481.811889 
L 448.323867 480.139961 
L 451.970938 478.304157 
L 455.444338 476.30655 
L 458.744068 474.153009 
L 461.870128 471.853563 
L 464.996188 469.271211 
L 467.948579 466.542598 
L 470.900969 463.501253 
L 473.679689 460.323287 
L 476.458409 456.808868 
L 479.237129 452.926225 
L 482.01585 448.64201 
L 484.79457 443.921793 
L 487.57329 438.730821 
L 490.35201 433.035141 
L 493.13073 426.803184 
L 495.90945 420.007934 
L 498.688171 412.629831 
L 501.640561 404.142878 
L 504.766621 394.440836 
L 508.066351 383.452429 
L 511.887091 369.919423 
L 517.791872 348.029665 
L 522.654632 330.3135 
L 525.607022 320.376247 
L 527.864732 313.498605 
L 529.775103 308.319622 
L 531.511803 304.218644 
L 533.074833 301.087358 
L 534.464193 298.790667 
L 535.679883 297.181295 
L 536.721903 296.112276 
L 537.763923 295.338421 
L 538.805943 294.865633 
L 539.674293 294.704316 
L 540.542643 294.755502 
L 541.410993 295.018918 
L 542.279343 295.493152 
L 543.321363 296.336878 
L 544.363384 297.474065 
L 545.579074 299.160168 
L 546.794764 301.217038 
L 548.184124 303.995709 
L 549.747154 307.625766 
L 551.483854 312.220568 
L 553.567894 318.403536 
L 555.999274 326.355634 
L 559.125335 337.397067 
L 564.856445 358.663112 
L 570.066545 377.64565 
L 573.713615 390.137477 
L 577.013346 400.673632 
L 580.139406 409.911706 
L 583.091796 417.950614 
L 586.044186 425.327472 
L 588.822906 431.683755 
L 591.601627 437.497207 
L 594.380347 442.79859 
L 597.159067 447.621478 
L 599.937787 452.000556 
L 602.716507 455.970404 
L 605.495228 459.564664 
L 608.273948 462.815493 
L 611.226338 465.927101 
L 614.178728 468.719145 
L 617.304788 471.361835 
L 620.430848 473.715233 
L 623.730579 475.919471 
L 627.203979 477.964233 
L 630.851049 479.843468 
L 634.671789 481.555021 
L 638.6662 483.10018 
L 643.00795 484.536222 
L 647.69704 485.844903 
L 652.733471 487.015419 
L 658.290911 488.073552 
L 664.369361 489.003189 
L 671.316162 489.834732 
L 672.358182 489.941712 
L 672.358182 489.941712 
" clip-path="url(#p3a4fc3b0c4)" style="fill: none; stroke: #ff7f0e; stroke-width: 1.5; stroke-linecap: square"/>
   </g>
   <g id="patch_9">
    <path d="M 125.48 502.504 
L 125.48 284.802 
" style="fill: none; stroke: #000000; stroke-width: 0.8; stroke-linejoin: miter; stroke-linecap: square"/>
   </g>
   <g id="patch_10">
    <path d="M 698.4 502.504 
L 698.4 284.802 
" style="fill: none; stroke: #000000; stroke-width: 0.8; stroke-linejoin: miter; stroke-linecap: square"/>
   </g>
   <g id="patch_11">
    <path d="M 125.48 502.504 
L 698.4 502.504 
" style="fill: none; stroke: #000000; stroke-width: 0.8; stroke-linejoin: miter; stroke-linecap: square"/>
   </g>
   <g id="patch_12">
    <path d="M 125.48 284.802 
L 698.4 284.802 
" style="fill: none; stroke: #000000; stroke-width: 0.8; stroke-linejoin: miter; stroke-linecap: square"/>
   </g>
   <g id="legend_2">
    <g id="patch_13">
     <path d="M 577.12 344.642 
L 687.2 344.642 
Q 690.4 344.642 690.4 341.442 
L 690.4 296.002 
Q 690.4 292.802 687.2 292.802 
L 577.12 292.802 
Q 573.92 292.802 573.92 296.002 
L 573.92 341.442 
Q 573.92 344.642 577.12 344.642 
z
" style="fill: #ffffff; opacity: 0.8; stroke: #cccccc; stroke-linejoin: miter"/>
    </g>
    <g id="line2d_37">
     <path d="M 580.32 305.762 
L 596.32 305.762 
L 612.32 305.762 
" style="fill: none; stroke: #1f77b4; stroke-width: 1.5; stroke-linecap: square"/>
    </g>
    <g id="text_26">
     <!-- $g_1(t)/\kappa_1$ -->
     <g transform="translate(625.12 311.362)scale(0.16 -0.16)">
      <use xlink:href="#DejaVuSans-Oblique-67" transform="translate(0 0.125)"/>
      <use xlink:href="#DejaVuSans-31" transform="translate(63.476562 -16.28125)scale(0.7)"/>
      <use xlink:href="#DejaVuSans-28" transform="translate(110.74707 0.125)"/>
      <use xlink:href="#DejaVuSans-Oblique-74" transform="translate(149.760742 0.125)"/>
      <use xlink:href="#DejaVuSans-29" transform="translate(188.969727 0.125)"/>
      <use xlink:href="#DejaVuSans-2f" transform="translate(227.983398 0.125)"/>
      <use xlink:href="#DejaVuSans-Oblique-3ba" transform="translate(261.674805 0.125)"/>
      <use xlink:href="#DejaVuSans-31" transform="translate(320.610352 -16.28125)scale(0.7)"/>
     </g>
    </g>
    <g id="line2d_38">
     <path d="M 580.32 329.282 
L 596.32 329.282 
L 612.32 329.282 
" style="fill: none; stroke: #ff7f0e; stroke-width: 1.5; stroke-linecap: square"/>
    </g>
    <g id="text_27">
     <!-- $g_2(t)/\kappa_2$ -->
     <g transform="translate(625.12 334.882)scale(0.16 -0.16)">
      <use xlink:href="#DejaVuSans-Oblique-67" transform="translate(0 0.125)"/>
      <use xlink:href="#DejaVuSans-32" transform="translate(63.476562 -16.28125)scale(0.7)"/>
      <use xlink:href="#DejaVuSans-28" transform="translate(110.74707 0.125)"/>
      <use xlink:href="#DejaVuSans-Oblique-74" transform="translate(149.760742 0.125)"/>
      <use xlink:href="#DejaVuSans-29" transform="translate(188.969727 0.125)"/>
      <use xlink:href="#DejaVuSans-2f" transform="translate(227.983398 0.125)"/>
      <use xlink:href="#DejaVuSans-Oblique-3ba" transform="translate(261.674805 0.125)"/>
      <use xlink:href="#DejaVuSans-32" transform="translate(320.610352 -16.28125)scale(0.7)"/>
     </g>
    </g>
   </g>
  </g>
 </g>
 <defs>
  <clipPath id="p47f11a21a7">
   <rect x="125.48" y="42" width="572.92" height="217.702"/>
  </clipPath>
  <clipPath id="p3a4fc3b0c4">
   <rect x="125.48" y="284.802" width="572.92" height="217.702"/>
  </clipPath>
 </defs>
</svg>
